<?xml version="1.0" standalone="no"?>
<!DOCTYPE svg PUBLIC "-//W3C//DTD SVG 20010904//EN"
 "http://www.w3.org/TR/2001/REC-SVG-20010904/DTD/svg10.dtd">
<svg version="1.0" xmlns="http://www.w3.org/2000/svg"
 width="700.000000pt" height="700.000000pt" viewBox="0 0 700.000000 700.000000"
 preserveAspectRatio="xMidYMid meet">
<metadata>
Created by potrace 1.14, written by Peter Selinger 2001-2017
</metadata>
<g transform="translate(0.000000,700.000000) scale(0.100000,-0.100000)"
fill="#000000" stroke="none">
<path d="M4734 5703 c-32 -20 -120 -72 -194 -115 -74 -43 -142 -83 -150 -88
-8 -5 -40 -23 -70 -40 -169 -93 -166 -90 -224 -208 -28 -59 -59 -118 -68 -132
-18 -26 -48 -130 -48 -165 0 -20 4 -20 302 -17 167 1 308 4 314 6 6 3 14 19
18 37 9 44 92 125 144 139 69 18 104 18 160 0 66 -22 125 -76 141 -131 l12
-39 512 0 c484 1 572 -1 692 -15 53 -6 125 -33 125 -46 0 -4 -30 -14 -67 -23
-56 -12 -174 -15 -656 -18 l-587 -2 -24 -51 c-29 -63 -66 -102 -124 -127 -49
-22 -128 -25 -191 -8 -53 14 -116 78 -137 137 l-17 48 -176 -2 c-279 -4 -431
-9 -438 -17 -13 -13 48 -172 116 -301 l68 -130 69 -37 c38 -20 96 -51 129 -67
33 -17 101 -53 150 -81 50 -27 122 -66 160 -86 39 -20 77 -42 85 -49 8 -7 24
-15 35 -17 12 -2 112 42 240 107 122 61 293 142 380 179 88 38 174 74 190 82
17 7 75 29 130 49 297 108 386 139 520 180 332 101 705 231 705 246 0 15 -33
27 -347 130 -618 202 -782 258 -973 332 -241 93 -264 103 -544 236 -82 39
-151 71 -153 71 -3 0 -36 16 -74 35 -39 19 -71 35 -73 35 -1 0 -29 -16 -62
-37z"/>
<path d="M2916 5303 c-1 -1 -463 -5 -1026 -8 -1596 -10 -1518 -8 -1587 -35
-88 -35 -190 -106 -221 -154 -41 -64 -74 -155 -75 -205 -4 -195 83 -340 251
-419 l77 -36 1425 2 c1151 2 2035 6 2128 11 9 1 1 18 -21 49 -128 178 -160
388 -91 601 16 48 80 167 95 177 5 3 9 9 9 14 0 7 -956 10 -964 3z"/>
<path d="M6005 4315 c-166 -56 -455 -172 -455 -182 0 -2 33 -48 73 -101 148
-197 195 -279 385 -672 88 -182 106 -212 160 -267 41 -41 86 -74 136 -99 73
-36 77 -36 163 -32 113 7 181 36 254 110 216 216 149 550 -195 978 -79 99
-307 327 -326 327 -9 0 -96 -28 -195 -62z"/>
<path d="M1418 4222 l-468 -2 0 -25 c0 -98 109 -264 241 -368 114 -89 430
-213 614 -241 22 -3 58 -9 80 -12 22 -3 51 -8 65 -11 14 -3 153 -7 310 -8 312
-4 343 0 593 65 290 75 613 204 787 314 147 93 299 211 287 223 -3 2 -29 -3
-60 -12 -30 -8 -63 -17 -73 -19 -11 -3 -39 -9 -64 -15 -95 -21 -427 -33 -501
-18 -15 3 -53 8 -85 12 -82 10 -236 49 -340 87 l-89 32 -415 1 c-228 0 -625
-1 -882 -3z"/>
<path d="M5188 3969 c-56 -29 -68 -47 -58 -84 4 -14 0 -370 -5 -430 -7 -89
-13 -149 -18 -185 -3 -19 -11 -75 -17 -125 -11 -93 -36 -251 -46 -295 -3 -14
-7 -36 -9 -50 -3 -14 -9 -50 -15 -80 -42 -231 -50 -427 -22 -525 66 -225 346
-355 556 -257 92 43 131 75 187 155 51 73 84 158 95 247 8 62 7 312 -1 350 -3
14 -7 41 -9 60 -7 57 -29 181 -40 225 -98 392 -262 742 -461 980 -45 53 -59
55 -137 14z"/>
<path d="M4204 3949 c-32 -17 -71 -40 -86 -50 -14 -11 -33 -19 -41 -19 -9 0
-17 -4 -19 -9 -6 -16 -341 -207 -532 -303 -259 -130 -611 -243 -916 -294 -140
-23 -519 -23 -630 1 -14 3 -56 6 -93 6 -55 0 -80 -6 -133 -31 -53 -26 -139
-90 -120 -90 3 0 -6 -12 -20 -27 -59 -63 -72 -240 -24 -335 36 -73 107 -142
190 -186 105 -56 158 -66 350 -66 214 -1 291 8 480 60 607 164 1121 514 1476
1004 84 116 184 290 198 343 9 36 -6 35 -80 -4z"/>
<path d="M4582 3896 c-5 -6 -28 -48 -51 -93 -23 -46 -55 -104 -71 -130 -16
-27 -37 -61 -46 -78 -45 -80 -151 -233 -239 -344 -158 -201 -220 -283 -251
-331 -16 -25 -32 -47 -35 -50 -10 -8 -120 -168 -165 -240 -148 -237 -239 -447
-243 -567 -1 -15 -23 -38 -69 -72 -78 -58 -104 -90 -130 -158 -46 -120 20
-257 154 -322 52 -25 67 -28 134 -24 100 5 159 23 255 78 65 37 182 120 205
145 3 3 34 32 70 65 189 174 374 422 492 657 26 54 48 100 48 103 0 3 9 24 19
48 92 203 158 461 187 727 7 60 13 444 7 471 -4 22 -16 30 -86 54 -45 15 -103
38 -129 50 -34 17 -50 20 -56 11z m-1222 -1966 c0 -5 -5 -10 -11 -10 -5 0 -7
5 -4 10 3 6 8 10 11 10 2 0 4 -4 4 -10z"/>
<path d="M3005 2390 c-49 -8 -94 -42 -115 -85 -27 -56 -25 -75 11 -124 65 -90
171 -93 248 -6 54 62 38 159 -32 197 -32 17 -78 24 -112 18z"/>
<path d="M1842 2213 c-19 -9 -40 -26 -48 -38 -19 -29 -21 -85 -4 -124 33 -81
169 -99 234 -32 23 24 27 38 28 84 2 61 -13 87 -64 113 -36 19 -105 17 -146
-3z"/>
<path d="M2493 2030 c-48 -11 -78 -34 -98 -77 -27 -54 -23 -105 9 -148 38 -49
78 -68 134 -62 81 8 114 29 138 86 49 116 -55 231 -183 201z"/>
</g>
</svg>
