<svg xmlns="http://www.w3.org/2000/svg" viewBox="0 0 1792 1194.6667"><path d="M13440 0H0v8960h13440V0" style="fill:#fcfbfa;fill-opacity:1;fill-rule:nonzero;stroke:none" transform="matrix(.13333 0 0 -.13333 0 1194.6667)"/><path d="M414.602 8629.9c5.597 125.2 106.199 235.5 203.5 330.1H422.805c-102.274-89.53-154.836-200.66-157.707-333.4-2.2-105.2-31.297-175.5-116.297-243C93.1367 8339.4 43.5352 8304.8 0 8279.8v-146.7c171.801 169.9 401.199 200.3 414.602 496.8M215 7805.7c60.898 88.7 107.402 165.5 199.703 225 86.996 56.1 204.098 74 298.598 128.9 130.601 75.8 166.301 173.8 221.601 314.4 22.903 58.2 59.602 102.2 95.598 151.8 67.3 92.8 96 181.8 60.1 296.8-3.87 12.34-7.2 24.8-10 37.4H875.602c64.796-65.8 94.597-155.7 25.496-231.3-37.899-41.5-89.598-77-122.996-131.7-43.399-70.7-47.204-162.6-92.204-233.1-65.996-103.4-159.296-135.9-267.902-178.9-174.398-69-250.191-166.3-332.7968-330.1C65.332 7815.57 36.9336 7780.47 0 7749.6v-151.5c87.3008 55.8 154.801 119.9 215 207.6" style="fill:#c6c3c1;fill-opacity:1;fill-rule:nonzero;stroke:none" transform="matrix(.13333 0 0 -.13333 0 1194.6667)"/><path d="M1327.1 8310.3c-48-30.26-88.34-61.43-121-93.5-55.8-54.6-87.8-139.3-135.6-193.7-89.602-101.9-190.996-120.4-322.504-148-186.496-39.2-269.297-168.6-374.894-310.6-58.102-78.1-138.801-138.2-232.797-170.1-47.0042-15.9-109.2073-40.8-117.9027-82-13.20308-62.6 63.6954-81.5 109.6017-71.9 150.801 31.4 277.394 140.1 364.894 264.8 81.301 115.8 151.903 203.6 292.704 244.6 146.597 42.6 285.098 60.4 392.198 188.3 40.2 48.1 75 149.8 140.7 179.7 141.8 64.6 273.3 194.7 224.8 362.6-20.1 69.4-76.6 123.9-84.4 194.4-8 73.3 48.4 138.8 86.7 195.7 12.8 19 23.13 48.8 31 89.4h-147.5c1.4-56.2-43.1-112.7-77-160.7-52.7-74.6-44-152.6-8.6-231.8 37.1-83.2 76.7-195.8-20.4-257.2M2023.7 8193.2c100.26-74.27 209.63-133.04 328.1-176.3 138.7-50.7 219.7 76 235.5 195.7 13.8 104.1-79.5 128.3-161.7 119.3-142.1-15.7-319.5-20.1-430.8 86.3-126.7 121-89.8 393.4-29.2 541.8h-130c-26.73-104-42.17-171.46-46.3-202.4-32.7-245.8 36.5-417.8 234.4-564.4M2580 8569.9c48.74-24.74 95.66-22.63 140.8 6.3 59.9 38.5 159.5 163.9 48.8 214-141.06 63.8-251.7 116.93-331.9 159.4-2.33 1.27-3.36 3.23-3.1 5.9.27 2.2 1.44 3.7 3.5 4.5h-255c-3.07-56.27 16.53-106.63 58.8-151.1 101.4-106.8 212.9-175.5 338.1-239M4841.8 8398.8c140.2 19.3 213.1 130.2 235.4 261.3 15.8 92.6 26.93 192.56 33.4 299.9h-105c-7.7-100.8-22.3-375.1-107.2-438.3-43.9-32.8-81.4 9.2-73.7 55.9 12.14 73.6 34.93 201.07 68.4 382.4h-100c-15.73-93.87-31.2-187.8-46.4-281.8-5.5-34-15.7-82.2-54.7-90.4-133.4-27.8-43 319.3-28.9 372.2h-125c-15.8-68.27-28.2-149.9-37.2-244.9-19.8-208.6 139.9-343.9 340.9-316.3M6327.16 8121.64c-.64.38-1.34.66-1.91 1.16-.16.15-.23.36-.38.51.68-.66 1.47-1.18 2.29-1.67zM6076.5 7822c104.3-71.8 198.2-106.1 305.8-13.1 40.86 35.33 77.53 75.13 110 119.4 66.13 70.4 129.54 143.34 190.2 218.8l64.6 77.6c97.8 110.3 120.6 263.4.2 367.2-56.9 48.9-184.3 140.3-247 45.7-16.54-25-29.97-61.56-40.3-109.7l-32.3-95.7-94.9-246.4c-39.5-88.6-58.2-178.8-172.8-113.1-126 72.2-234.97 157.8-326.9 256.8-165.5 178.1-227.1 395.9-257.5 630.5h-205c79.9-449.5 326.3-876.7 705.9-1138" style="fill:#c6c3c1;fill-opacity:1;fill-rule:nonzero;stroke:none" transform="matrix(.13333 0 0 -.13333 0 1194.6667)"/><path d="M6439 8756.7c23.1 30.3 3.5 63-26.4 81-68.8 41.2-138.2 81.97-208.2 122.3h-206.3c107.27-65.6 215.57-129.4 324.9-191.4 33.2-18.8 88.8-47.4 116-11.9M6718.1 8960h-107.5c35.7-19.6 86.7-68.6 107.5 0M7672.5 8578.9c95.3-34.4 175.9 47.1 78.2 116.8-121.33 86.67-242.6 173.4-363.8 260.2-.8.6-.86 1.27-.2 2 .54.67 1 1.37 1.4 2.1h-207.5c90.5-175.3 310.8-315.7 491.9-381.1M7825.6 8960h-225c46.1-26.6 224.9-132.4 225 0M8185.2 8822.7c135.5-48.1 179 43.8 237.9 137.3h-362.5c-37.1-88.1 58.7-113.9 124.6-137.3M8768.3 8898.9c57.4 7.74 106.5 28.1 147.3 61.1h-315.8c42.4-50.2 98.57-70.57 168.5-61.1M8867 8546c68.5-88.6 206.7 43.3 256.4 103.3 84.4 101.93 166.8 205.5 247.2 310.7h-197.5c-45.9-69.2-122.3-198.6-183.7-236.8-50.4-31.4-187.3-93.3-122.4-177.2M9980.3 7777.5c232.1-15.9 449.5 43.6 676.9 74.4 188.2 25.6 402 .4 579.6 75.1 174.1 73.1 313.8 250.6 288.7 450.2-1.7 14-8.6 43.53-20.6 88.6-60.9 229.5 74.3 354.1 228.2 494.2h-220c-127.1-120.5-191.8-239.5-164.6-422.9 10.4-70.6 31.2-158.5 27-220-16.2-236.5-306.9-302.1-493.6-286.9-134.3 11-256.5 2.63-366.8-25.1-224.6-56.4-453.6-113.6-679.9-25.2-451.5 176.7-228.3 697.3-59.6 980.1h-137.5c-124.5-227.2-240.9-508.3-170.3-772.7 64.8-242.5 258.7-392.3 512.5-409.8" style="fill:#c6c3c1;fill-opacity:1;fill-rule:nonzero;stroke:none" transform="matrix(.13333 0 0 -.13333 0 1194.6667)"/><path d="M10127.8 8176.4c250.1-76 690.8 203.3 850.2 384.9 103.5 117.9 141.3 268.2 222.6 398.7h-190c-18.3-46.4-36.6-92.9-54.9-139.5-98.7-251.4-385.7-431.4-645.5-478.3-77.2-13.9-204 4.8-244 83.5-40.5 79.8 31.7 146.3 81.2 198.9 88.3 94 125.2 205.8 110.7 335.4h-155c31.8-185.1-107.5-230.3-166.9-371.4-72.4-172.1 13-358 191.6-412.2" style="fill:#c6c3c1;fill-opacity:1;fill-rule:nonzero;stroke:none" transform="matrix(.13333 0 0 -.13333 0 1194.6667)"/><path d="M10522.1 8757.2c87.1-66.2 183.5 36.4 108.6 116.3-29.6 31.66-54.2 60.5-73.7 86.5h-178.9c27.7-83.27 75.7-150.86 144-202.8M12115.8 8165.6c73 1.7 44.5 155.7 44.1 201.2-1.4 201.54 25.5 399.27 80.7 593.2h-162.5c-35.6-132.4-56.8-246.54-63.5-342.4-4.7-67.7-13.4-454.5 101.2-452M13262.2 8112.7c-87.1-83.9-320.1-272.1-397.1-57.6-35.2 98.07-52.8 202.47-52.7 313.2 0 234.4 126.6 417.6 349.8 500.8 78.7 29.33 157.4 59.63 235.9 90.9h-406.2c-184.2-122.13-283.9-294.53-299-517.2-9.6-140.94 2.7-281.87 36.9-422.8 48.2-198.6 196-332.6 392.2-171.9 96.3 78.87 200 173 310.9 282.4 1.4 1.4 3 1.63 4.7.7 1-.6 1.8-1.2 2.4-1.8v142.5c-48.7-38.73-108-91.8-177.8-159.2M3026.3 8819c19.33-7.6 39.43-12.93 60.3-16 154.6-23.07 309.03-46.73 463.3-71 105-16.5 124.6 98.4 16.2 120.9-189.66 39.33-359.17 65.47-508.5 78.4-70.8 6.2-114.9-79.4-31.3-112.3M7059.41 8572.85c71.14 25.47 104.16 114.91 73.78 199.77-30.38 84.85-112.67 132.99-183.81 107.52-71.13-25.46-104.16-114.9-73.77-199.75 30.38-84.86 112.67-133.01 183.8-107.54M4234.4 8734.8c40.92 0 74.1 33.18 74.1 74.1 0 40.92-33.18 74.1-74.1 74.1-40.92 0-74.1-33.18-74.1-74.1 0-40.92 33.18-74.1 74.1-74.1M5899.9 8730c90.93-74.73 182.8-148.3 275.6-220.7 21.2-16.6 40-40.7 67.1-20.2 19.8 15 20 41.9 1 57.1-71.13 56.73-167.16 128.14-288.1 214.2-15.4 11-26.56 17.3-33.5 18.9-30.9 7.2-45.4-30.2-22.1-49.3M8034.6 8517.3c86.86-63.8 178.27-120.03 274.2-168.7 55.4-28.13 99.27-18.64 131.6 28.5 28.07 41 88.84 140.27 182.3 297.8 20.8 35 14.3 77.4-27.2 88.7-117.2 32.1-146.9-281.7-298.5-199.1-31.27 17.07-96.37 48.07-195.3 93-45.3 20.6-90.6 32.6-119.8-13.8-30.3-48 14.6-98.4 52.7-126.4M10312 8491c55.2-30.4 224 78.3 174.6 145.5-48.5 66-149.9-19.4-185.1-58-25.4-27.9-23.4-68.8 10.5-87.5M2935.9 8593.4c15.94-18 33.93-30.1 54-36.3 147.53-45.13 315.07-90.03 502.6-134.7 34-8.1 78.5-21.4 105.1-6.9 39.5 21.6 36.7 75.7 10.4 100.8-19.2 18.3-56.5 30.2-82.8 36.8-166.73 42.2-335 76.77-504.8 103.7-47.6 7.5-91.6 6.7-88.2-54.5.2-3.4 1.43-6.37 3.7-8.9M6109.2 8321.1c46.7-41.7 97.4 4.2 52.1 47.8-89.07 85.73-180.06 169.3-273 250.7-40.5 35.4-85.1-3.8-53.5-37.3 63.87-67.67 155.33-154.73 274.4-261.2M7465.12 8243.33c60.51 38.85 75.49 123.43 33.44 188.91-42.04 65.48-125.17 87.08-185.68 48.23-60.51-38.85-75.49-123.42-33.45-188.91 42.04-65.48 125.18-87.08 185.69-48.23M5302.5 7802.9c15.3-53.9 83.4-41.9 87.4 9.7 13 167.27 8.47 346.83-13.6 538.7-22.4 194.7-201.3 165.2-178.1-24.6 22.4-183.27 57.17-357.87 104.3-523.8M8865 8187c82.1 161.5-167 411.6-247.5 218.9-46-110 7.2-296 150-281.2 46.33 4.8 78.83 25.57 97.5 62.3M2793.1 8384.2c-15-18.53-19.07-37.36-12.2-56.5 15.1-42.2 51.3-49.6 100.5-63.9 178.67-51.8 358.13-100.57 538.4-146.3 48.9-12.4 118.1-14.1 137.5 42.9 29.5 86.8-70.7 106.4-127 120.6-173.53 44-347.87 84.37-523 121.1-36.9 7.8-85.9 17.1-114.2-17.9M8147.8 8194.9c-19 110-274.3 15.4-336.9-8.5-73.3-28-95-82.9-46.8-148.7 112.2-153.2 263.5-321.7 382.7-448.1 19.2-20.3 51.4-49.2 71.2-59.2 81.4-41 184.7 45.9 99.6 117.4-77.86 65.33-154.93 131.53-231.2 198.6-282.5 248.2 79.8 241.9 61.4 348.5M1716.18 7963.03c52.58-15.58 107.35 12.79 122.33 63.36 14.98 50.58-15.5 104.2-68.09 119.78-52.58 15.57-107.35-12.79-122.33-63.37-14.98-50.57 15.5-104.19 68.09-119.77M3350.2 7950.5c-194.33 69.6-370.8 126.07-529.4 169.4-30.6 8.4-62.1 17.7-89.5 2-49-28.1-63.3-97.1-14.9-135.1 25.6-20.1 69.3-31.5 103.4-40.1 175-44.46 350.97-84.7 527.9-120.7 38.9-8 84.2-1.8 89.3 41.6 5.3 44.7-51.5 70.3-86.8 82.9M6730 7907.9c-68.4-73.27-120.9-156.6-157.5-250-133.7-314.2-58.5-697 127.8-970.1 148.5-217.6 373.8-324.7 642.2-303 66.5 5.4 75.2 80.3 15.1 100.5-307.2 103.5-617.6 251.2-655.7 617.1-20.9 200.3 17.3 426.2 124.7 600.6 160.6 199.9 288.6 106.4 475.5 29.5 245-104.4 490.3-236.1 698.6-403.2 89.1-71.6 185.5-171.9 278-257.8 64.1-59.5 118.7-.8 63.7 66.6-146.2 179.3-312 349.8-510.5 534.3-77.73 78.47-158.57 154.57-242.5 228.3l-139 111.8c-192.14 110.93-259.62 117.05-259.62 117.05-290.96 2.25-430.98-188.85-460.78-221.65M4694 8038.7c-50.3-34-191.6-143.5-167.1-214.5 32.7-94.7 290.5 3.1 351.8 28.6 180.8 75.3-34.6 287.5-184.7 185.9" style="fill:#c6c3c1;fill-opacity:1;fill-rule:nonzero;stroke:none" transform="matrix(.13333 0 0 -.13333 0 1194.6667)"/><path d="M8426.8 8020.9c-45.5-4.5-311.7-47-191.7-146.3 64.8-53.6 167-137.7 243.5-145.6 100.3-10.5 200.4 115 149.4 206.6-37.9 68.2-125.5 92.7-201.2 85.3M3900.4 7582.9c80.08 0 145-64.92 145-145s-64.92-145-145-145-145 64.92-145 145 64.92 145 145 145zm-346.12 38.59c-78.76-194.94 11.18-415.12 200.91-491.77 189.72-76.65 407.37 19.24 486.13 214.19 78.77 194.94-11.18 415.12-200.9 491.77h-.01c-189.72 76.65-407.37-19.25-486.13-214.19M1369.77 7765.22c-1.67-38.23 29-70.63 68.51-72.35 39.5-1.73 72.88 27.87 74.55 66.11 1.67 38.24-29 70.63-68.51 72.35-39.51 1.73-72.88-27.87-74.55-66.11M11403.7 7813.51c-50.2 4.49-94.9-35.17-99.6-88.58-4.8-53.42 32.1-100.36 82.4-104.85 50.2-4.49 94.9 35.18 99.6 88.6 4.8 53.41-32.1 100.35-82.4 104.83M2670 7637.6c196.53-50.2 375.57-91.97 537.1-125.3 62.6-13 126-16.2 147.5 51.8 17.8 56.1-22.4 87-72.1 98.7-236.6 55.53-414.97 94.33-535.1 116.4-14.13 2.53-34.07 4.4-59.8 5.6-103.7 4.6-132-117.9-17.6-147.2M2228.3 7779.6c-159.3 25.8-221.4-620.4-225.7-729.6-1.73-45.06 1.2-84.47 8.8-118.2 11.4-50.7 61.8-62.3 94.8-23.5 11.8 13.94 20.43 29.7 25.9 47.3 70.2 224.9 151.1 501.8 169 714.9 4.3 51.2-19.2 100.4-72.8 109.1M13005.4 7434.7c-33.7-34.3-20-86.6 29.9-91.8 53.2-5.5 168.7 102.2 213.5 136.3 58.1 44.2 124.1 78.6 187.7 116.7.5.27.9.23 1.4-.1.5-.4 1.2-.86 2.1-1.4v150c-87.5-70.1-193.4-123.4-249.4-162.5-85.9-59.93-147.7-109-185.2-147.2M5448.5 7358.9c87.3 71.3 188.7 148.4 308.2 123.3 121.4-25.6 186-152.4 194.7-269.2 13.8-186.7-42.9-325.6-115.7-491.1-46-104.5-63.2-233.2 15.4-326.4 46.9-55.5 126.5-92.4 161.8-165 48.2-99.4-36.7-148-124.6-156.8-239-23.9-441.7 23.3-693 87-167.5 42.4-343 131.6-372.8 313.4-51.8 315.1 410.2 708.6 626 884.8zM4630 6565.2c-61.1-507.6 493.3-676.5 879.9-728.5 165.8-22.3 364.6-19.9 516.8 49.2 171.5 77.7 271.9 223.1 155.1 403.8-37 57.2-96.7 118.5-122.9 175.1-50.1 107.8-33.8 247.5-3.8 362.7 65.8 252.2 179.2 686.5-101.7 863.8-149.2 94.2-324.4 21.4-457.9-69.3-260.3-177.1-509.2-404.7-693.7-663.7-85.7-120.3-155.4-256.8-171.8-393.1M11817.5 7598.7l65-54.1c76.2-67.4 137.1-116.37 182.8-146.9 33.9-22.7 77.6-15.9 112.9 6.5 169.6 107.9 293 276.7 320 477.9 7.6 57 5.5 140.5 3.5 192.2-11 286.9-19.1 624.1 118.9 885.7h-200c-73.6-236.4-90.2-483.2-80.4-734.4 10.2-263.7 38.3-468.5-132.5-673.1-36.6-43.8-89.9-88.5-150.2-69.6-52.7 35.33-103.7 73.83-152.8 115.5-34.2 27.4-127.8 108.3-156.7 93.5-29.4-15.1 42.4-72 69.5-93.2M4838.3 7511.2c75.6 169.5-198.2 125.2-264.9 114.5-87.1-14.1-110-103.4-64-172.4 90.8-136.4 272.7-68.1 328.9 57.9M11741.5 6707.2c48.6 121.6 23.5 222.43-75.4 302.5-74.7 60.5-201.2 80.4-294.2 87-230.6 16.4-446.5-14.3-565.1-238.8-3.2-6.07-3-14.8.7-26.2 25.1-79 133.8 48.3 163.2 68.5 139.6 95.9 333.1 115.9 489.8 62.7 65.1-22.07 110.5-52.23 136.3-90.5 87-128.6-68.8-245.7-130.4-361.4-78.4-147-50.6-314.3-110.4-464.9-60-151.1-183.4-250.1-339.4-293.1-164-45.2-323.2-12.6-478.2 55.4-88.8 39-203.9 84-215.7 195.9-14.5 138.6 98.9 152.1 176.5 220.9 103.2 91.5 168.4 269.4 213.2 382.8 6 15.13 3.3 27.77-8 37.9-28 25.2-60.6-2.1-75.3-27.7-38.7-67.13-77.5-134.1-116.6-200.9-32.9-56.2-76.9-123.7-139.9-148.4-3-1.13-6-1.27-9-.4-54.7 15.8-21.9 80.8-5.5 123.4 20.5 53.2 65.6 156.93 135.5 311.2 42 92.9 69.2 193.9 49.4 294.3-9.6 48.4-38.1 107.7-53.1 157.5-41.7 139.1 43.3 276 180.2 320 95.9 30.9 169-6 253-65.3 85.2-60.1 164.5-116.9 266.7-144.8 73-19.9 114.4 49.2 49.9 90-77.5 49.07-168.5 101.93-273 158.6-105 56.9-192.4 90.8-301.1 71.2-198.7-35.9-326.7-222.4-295.1-423.9 15.7-100.5 68.3-189.5 31.4-323.1-32.1-115.9-86.6-227.3-131.7-338.7-51.3-126.73-82.6-258-94-393.8-10.5-123.8 28.1-222.37 115.7-295.7 296.9-248.7 761.3-280.3 1052.2-4.4 116.5 110.4 159 239.1 181.5 394.9 11.6 79.7 17.2 165.3 49.6 241.6 41.2 97.4 127.3 168.4 166.3 265.7M996.785 7523.7c-4.777-36.81 22.695-70.72 61.355-75.74 38.67-5.02 73.89 20.74 78.67 57.55 4.78 36.8-22.69 70.71-61.36 75.73-38.66 5.02-73.88-20.74-78.665-57.54M10027.4 6765.1c-12.9-49.4-46.7-163.4-117.1-153.8-59.9 8.2-85.6 88.3-94.1 140.4-29.33 180.93-26.6 361.23 8.2 540.9 5.27 27.07 15.93 51.53 32 73.4 34 46.1 98.1 28.4 126-14 11.94-18.2 21.3-37.83 28.2-58.9 57.3-175.73 62.9-351.73 16.8-528zm130.4 606.5c-60.5 281.2-311.8 232.3-397.8 11.3-66.2-170-75.3-384-57.6-563.6 11.5-117.1 92.3-424 282.6-320 76.6 41.8 125.7 161.9 149.2 246 56.3 201.3 67.7 421.2 23.6 626.3M6928.5 7543.8c-38.05 0-68.9-30.85-68.9-68.9 0-38.05 30.85-68.9 68.9-68.9 38.05 0 68.9 30.85 68.9 68.9 0 38.05-30.85 68.9-68.9 68.9M12499.4 7453.1c-55.5-80.9 2.7-132.6 76.7-157.1 57.6-19.1 208.5-41.8 214.8 50.5 7.9 114.7-220.7 210-291.5 106.6M2529.5 7450.9c-69-99.8 120.5-150.4 179.2-162.6 147-30.5 294-62.4 453.7-85.7 31.54-4.6 59.8-.9 84.8 11.1 44.1 21.1 48.8 68 9.6 98.2-15.6 12-45.43 24.17-89.5 36.5-173.47 48.4-348.53 89.9-525.2 124.5-40.3 7.9-85.8 16.9-112.6-22M7527.39 7331.34c11.71 67.8-36.5 132.75-107.68 145.04-71.18 12.3-138.39-32.7-150.1-100.52-11.72-67.81 36.49-132.75 107.68-145.04 71.19-12.3 138.38 32.7 150.1 100.52M11409.7 7375.9c-43.4-122.8 259.1-210.3 333.3-202.3 77.8 8.4 101.5 76.3 53.6 132.3-49.4 57.7-128.8 105.8-193.1 135.1-73.1 33.3-165.6 14.6-193.8-65.1M8499.4 7385.6c-51.3-70.8-4.9-151.6 46.5-209.7 67.2-75.9 149.2-29.3 173.4 51.8 33.7 112.9-138 271.2-219.9 157.9M1040 7112.5c226.26-6.73 441.53-61.53 645.8-164.4 26.4-13.3 67.8-17.1 90 7.1 75 81.6-174.1 196.2-227.8 217.8-329 132.5-719.199 108.4-1046.5-14.5-167.937-63.07-333-133.03-495.19922-209.9-1.26562-.6-2.53515-.53-3.80078.2-1 .53-1.835937 1.14-2.5 1.8v-97.5c329.199 142 678.902 270.2 1040 259.4M7884.3 7224c-122.5 91.6-315.9-106.3-197.7-232.1 51.6-54.9 150.2-52.6 209.9-19.1 118.1 66.5 75.4 185.7-12.2 251.2M12320.6 7064.6c85.9-8.8 109 76.6 27 101-91.5 27.2-184.4 48.6-278.5 64.2-27.8 4.6-47.4 5.43-58.8 2.5-46.8-12-64.2-60.1-33.6-98.3 34-42.5 283.6-63.2 343.9-69.4" style="fill:#c6c3c1;fill-opacity:1;fill-rule:nonzero;stroke:none" transform="matrix(.13333 0 0 -.13333 0 1194.6667)"/><path d="M5141.3 6348.7c57-48.5 169.7-76 251.4-95.9 60.4-14.8 124.7-9.6 105.5 75.7-17.67 78.33-8.1 156.73 28.7 235.2 54.9 117 223.1 415.5 193.2 526.2-53.3 197-237.7 36.9-312.9-32-103.87-95.13-190.96-200.53-261.3-316.2-67.9-111.5-124.7-290.8-4.6-393M7102.6 6965.65c56.92 11.89 93.76 66.1 82.27 121.08-11.48 54.98-66.94 89.91-123.86 78.02-56.94-11.89-93.77-66.1-82.29-121.08 11.49-54.98 66.95-89.91 123.88-78.02M2598.4 6900.8c65.1-68.6 118.9-128.3 216.6-140.7 62.6-7.9 119.6-18.6 170.9-53 95.3-63.9 146.1-176.7 122.4-289.8-74.9-358.8-742.2-403.2-778.9 22.7-5.27 60.33 9.3 120.93 43.7 181.8 46.5 82.4 85.8 129.8 100.2 227.3 4.53 30.46 9.63 50.07 15.3 58.8 26.9 41.3 80.2 24.1 109.8-7.1zM2395.2 7060c-9.2-67.6 1-171.6-37.5-250.2-18.1-37.1-51.1-72.3-80.5-104.6-59.5-65.5-78.1-174-73.9-262.6 11.7-244.7 220.6-452.9 459.2-482.3 216.4-26.7 424.7 92.9 541.8 272.9 139.5 214.6 59.7 413.3-112 571.6-63.47 58.47-131.13 90.8-203 97-53.9 4.6-120.6 7.5-166.2 25.3-92.7 36-106.6 112-160.6 185.5-64.5 87.8-154.9 37.8-167.3-52.6M13122.8 7059.9c4.5 43.4-43.1 40.4-71.1 28.4-167.7-71.53-335.4-143.23-503.1-215.1-68.1-29.3-22.7-90.6 36.3-67.4 162.9 64.14 324.3 131.83 484.2 203.1 22 9.8 50.9 23.4 53.7 51M3474 7004.4c-32.33 21-63.07 34.33-92.2 40-100.9 19.5-174.7-103.3-76.9-162.2 27.93-16.87 82.7-47.06 164.3-90.6 175.6-93.7 181.5-263.4 50.4-401.2-38.27-40.13-76.23-80.47-113.9-121-29.9-32.2-41.2-71.2-8.8-107.5 25.8-28.9 80.9-15.4 111.6-.8 94.6 45.07 171.5 110.7 230.7 196.9 176.5 257-59.3 512.7-265.2 646.4M828.555 6877.91c-4.664 57.97-56.375 101.11-115.496 96.35-59.129-4.75-103.278-55.6-98.618-113.57 4.668-57.97 56.379-101.11 115.504-96.35 59.121 4.76 103.274 55.61 98.61 113.57M8971.98 6940.76c-49.27 40.61-117.94 38.67-153.38-4.33-35.45-43-24.24-110.78 25.02-151.39 49.26-40.61 117.93-38.67 153.38 4.33 35.44 43 24.24 110.78-25.02 151.39M1097.22 6961.93c-63.01-16.41-100.224-82.97-83.11-148.65 17.11-65.68 82.06-105.62 145.07-89.21 63.01 16.41 100.22 82.96 83.11 148.65-17.1 65.68-82.06 105.62-145.07 89.21M13103.3 6780.1c-49.3-35.6 11-75.4 54.4-55.5 111.2 50.93 205.3 92.17 282.3 123.7v98.6c-92.6-43.8-185.1-87.73-277.6-131.8-20.7-9.94-40.4-21.6-59.1-35M11890 6851c1.2-44 51.2-54.9 87.5-54.9 68.4 0 319.4 1.8 362.4 50.8 43.8 49.9 1.9 90.8-54.8 90.8-98.4 0-196.5-3.77-294.3-11.3-42.5-3.2-102.2-24-100.8-75.4M8517.77 6643.57c38.49-55.37 25.65-130.87-28.69-168.63-54.32-37.76-129.57-23.49-168.05 31.89-38.49 55.37-25.64 130.87 28.69 168.63 54.32 37.76 129.57 23.48 168.05-31.89zm-99.97 233.33c-158.06 0-286.2-128.14-286.2-286.2s128.14-286.2 286.2-286.2 286.2 128.14 286.2 286.2-128.14 286.2-286.2 286.2M7226.53 6771.8c-2.56-50.47 40.44-93.67 96.04-96.48 55.6-2.82 102.74 35.81 105.3 86.28 2.56 50.47-40.44 93.67-96.04 96.48-55.6 2.82-102.75-35.81-105.3-86.28M1478.26 6767.19c-33.5-36.19-30.12-93.82 7.57-128.71 37.68-34.9 95.4-33.86 128.91 2.33 33.51 36.19 30.12 93.81-7.57 128.71-37.68 34.9-95.4 33.85-128.91-2.33M6367.08 6792.14c-52.61-6.09-89.35-62.17-82.05-125.26 7.3-63.1 55.87-109.31 108.49-103.22 52.61 6.09 89.35 62.17 82.05 125.26-7.3 63.1-55.87 109.31-108.49 103.22M76.7578 6673.51c-3.707-54.33 42.6052-101.73 103.4372-105.88 60.828-4.15 113.145 36.53 116.852 90.86 3.699 54.33-42.609 101.73-103.438 105.88-60.836 4.15-113.1481-36.53-116.8512-90.86M7585 6660.74c-5.43-42.96 29.67-82.77 78.38-88.92 48.71-6.16 92.6 23.68 98.02 66.64 5.43 42.95-29.66 82.77-78.37 88.92-48.71 6.15-92.6-23.68-98.03-66.64M10707.8 6161.3c-91.1-20.9-79.7-127.2 10.4-127.7 313.2-1.9 428.1 280.6 347.5 544.5-13.2 43.4-47.6 117.9-95.6 129.6-40.5 9.8-59.4-34.7-47.9-67.3 28.7-81.53 45.5-158.37 50.3-230.5 11.4-172.4-129.3-217.6-264.7-248.6M12784.9 6675.1c-44.4-15.3-202.7-71.1-204.6-125.2-1.3-33.87 14.5-54.7 47.4-62.5 44-10.5 207 52.4 241.8 84.9 67.9 63.5-14.1 127-84.6 102.8M12220.9 6617c9.5 46.2-37.6 68.2-78.4 58.3-64.5-15.6-331.6-84.8-355.6-144.7-37.4-93.3 86.9-77.9 130.4-62.5 83.6 29.73 166.2 61.93 247.8 96.6 23.8 10.1 50.2 25.2 55.8 52.3M1860.48 6564.46c-19.64-49.61 11.78-108.56 70.16-131.68 58.38-23.11 121.64-1.64 141.27 47.97 19.64 49.6-11.76 108.55-70.15 131.67-58.39 23.11-121.64 1.64-141.28-47.96" style="fill:#c6c3c1;fill-opacity:1;fill-rule:nonzero;stroke:none" transform="matrix(.13333 0 0 -.13333 0 1194.6667)"/><path d="M2611.18 6314.29c68.22-42.14 159.32-18.36 203.46 53.11 44.14 71.47 24.61 163.57-43.61 205.71-68.23 42.14-159.33 18.36-203.47-53.11-44.14-71.47-24.61-163.57 43.62-205.71M13196 6378.42c56 8.47 95.4 55.58 87.8 105.22-7.5 49.64-59 83.01-115 74.54-56-8.47-95.4-55.58-87.8-105.22 7.5-49.64 59-83.01 115-74.54M1215.78 6526.1c-65.18-8.01-112.14-62.35-104.89-121.39 7.24-59.04 65.96-100.41 131.14-92.41 65.17 8.01 112.13 62.35 104.88 121.39s-65.96 100.41-131.13 92.41M757.004 6233c20 57.4 30.992 151.5-2.902 206-59.102 94.6-198.403 62.9-291.504 40.6-159-38-313.2-90.77-462.598-158.3v-198.2c85.1328 43 155.332 76.77 210.602 101.3 75.296 33.4 174.703 51 200.496-54 25.601-104.1-53.598-219.4-116.196-295.1-91.8-111-190.101-216.67-294.902-317v-207.7c131.602 112.06 260.098 227.53 385.496 346.4 157.5 149.3 298.902 327.4 371.508 536M12252.4 6292.1c65.2 4.5 199.3 26.9 212.1 101.7 25 146.3-251.7 28.9-279.2-22-23.2-43.1 24.4-82.6 67.1-79.7M9187.3 6147.9c36.66 26.8 63.03 61.97 79.1 105.5 57.8 156.1-203.9 282-220.8 93.8-5.46-60.93 5.34-120.34 32.4-178.2 19.6-41.9 76.5-45 109.3-21.1M7577.12 6344.3c3.09-45.29 46.95-79.19 97.97-75.71 51.02 3.48 89.88 43.02 86.79 88.31-3.08 45.29-46.95 79.19-97.97 75.71-51.02-3.48-89.89-43.02-86.79-88.31M3954.8 6316c-1.8-42.6 86.7-39 113.7-36.6 90.2 8.1 185.1 12.9 292.1 22 30.33 2.6 48 18.13 53 46.6.6 3.6-.17 6.9-2.3 9.9-17 23.87-41.6 35.23-73.8 34.1-72.9-2.5-334.4-19.8-379.1-67.5-2.27-2.4-3.47-5.23-3.6-8.5M12746.8 6371.17c-60.9-5.01-106.7-53.25-102.2-107.74 4.5-54.5 57.5-94.61 118.4-89.6 60.9 5.01 106.7 53.25 102.2 107.74-4.4 54.49-57.5 94.61-118.4 89.6M6491.01 6350.29c-42.5-4.55-73.47-40.86-69.17-81.12 4.3-40.25 42.24-69.2 84.75-64.65 42.5 4.54 73.47 40.85 69.17 81.1-4.3 40.26-42.24 69.21-84.75 64.67M1629.44 6288.83c-43.13-44.65-38.57-119.01 10.18-166.08 48.75-47.08 123.22-49.04 166.34-4.39 43.13 44.66 38.57 119.02-10.18 166.09-48.75 47.08-123.22 49.04-166.34 4.38M12125 5437.5c-274.4-229.7-520.4-475.6-607.7-828.1-16.1-65-27.1-157.2-40.1-218.9-38.5-182.8-171.2-333.8-282.1-480.8-20.2-26.8-83-121.21-10-132 23-3.4 37.6 8.4 53.7 23.5 90.4 84.67 170.9 164.23 241.5 238.7 43.1 45.47 73.3 82.86 90.5 112.2 75.8 129.7 50.6 285.1 81.6 427.3 53.2 244.3 216.3 425.8 393.3 592.4 416 391.7 881.3 697.2 1394.3 947.2v200.4c-353.9-186.9-691.8-378.4-1006.8-627.7-55.3-43.8-158.1-128.53-308.2-254.2M7977.1 6275.6c-42.74 0-77.4-34.65-77.4-77.4 0-42.75 34.66-77.4 77.4-77.4 42.74 0 77.4 34.65 77.4 77.4 0 42.75-34.66 77.4-77.4 77.4M8786.3 6096.58c38.94-1.9 71.99 26.78 73.82 64.07 1.82 37.29-28.27 69.07-67.22 70.97-38.94 1.9-71.99-26.78-73.82-64.07-1.81-37.29 28.27-69.06 67.22-70.97M7301.8 5644.6c-72.6-47.2-154.3-66.47-245.1-57.8-119.4 11.4-231.3 105.8-217.6 232.1 20.7 189.7 298.8 251 440.4 181.3 148-72.7 160.5-265.7 22.3-355.6zm224.9-118c148.2 165.1 120.4 420.2-53.3 556.8-225.9 177.7-607.2 217.8-798.5-42.6-74.2-100.93-98.66-215.27-73.4-343 82.6-417.7 686.5-437.4 925.2-171.2M3875.6 6168.7c-70.1-8.3-74.3-69.5-.6-76.1 148.13-13.07 296.46-23 445-29.8 29.27-1.34 54-.27 74.2 3.2 65.6 11.1 85.5 93.2 24 125.5-11.8 6.2-31.1 9.13-57.9 8.8-162.07-2.13-323.63-12.67-484.7-31.6M11961.3 5986.2c54.8 35.05 74.1 102.73 43.1 151.17-30.9 48.43-100.5 59.28-155.3 24.23-54.8-35.05-74.1-102.73-43.1-151.17 30.9-48.43 100.5-59.28 155.3-24.23M956.129 6160.79c-45.262-23.46-61.363-82.18-35.973-131.17 25.391-48.98 82.664-69.67 127.924-46.21 45.25 23.45 61.35 82.18 35.96 131.16-25.39 48.99-82.66 69.68-127.911 46.22M8247.59 6147.99c-52.9-2.68-93.81-43.89-91.37-92.04 2.44-48.15 47.3-85.02 100.2-82.34 52.9 2.68 93.79 43.89 91.35 92.04-2.43 48.15-47.29 85.02-100.18 82.34M12426.5 5966.13c47.5 33.15 60.8 96.23 29.6 140.89-31.1 44.66-94.9 53.99-142.4 20.84-47.5-33.14-60.8-96.22-29.6-140.88 31.1-44.66 94.9-53.99 142.4-20.85M9570.2 6051.2c0 36.67-29.73 66.4-66.4 66.4s-66.4-29.73-66.4-66.4 29.73-66.4 66.4-66.4 66.4 29.73 66.4 66.4M8542.17 5911.96c45.51 4.95 78.57 44.25 73.85 87.79-4.73 43.54-45.46 74.83-90.98 69.89-45.52-4.95-78.58-44.26-73.86-87.8 4.74-43.54 45.47-74.82 90.99-69.88M1328.07 5900.41c-4.72-61.23 46.82-115.13 115.1-120.38 68.28-5.26 127.46 40.13 132.16 101.36 4.72 61.23-46.82 115.13-115.1 120.38-68.28 5.26-127.45-40.13-132.16-101.36M9200.19 5765.24c69.29-62.61 75.73-168.41 14.38-236.31-61.36-67.9-167.27-72.19-236.56-9.58-69.29 62.62-75.73 168.42-14.38 236.32s167.27 72.19 236.56 9.57zm-164.72 206.26c-172.14-30.35-286.11-200.02-254.56-378.96 31.55-178.94 196.68-299.4 368.82-269.04 172.15 30.35 286.11 200.02 254.57 378.96-31.56 178.94-196.68 299.39-368.83 269.04" style="fill:#c6c3c1;fill-opacity:1;fill-rule:nonzero;stroke:none" transform="matrix(.13333 0 0 -.13333 0 1194.6667)"/><path d="M140.098 5912.4c8.3 51-40.3949 60.9-77.6957 45.9-20.7382-8.34-41.5351-16.73-62.4023-25.2v-180c30.3008 30.7 133.902 121.6 140.098 159.3M4349.9 5924.7c-185.4 22.73-371.47 35.9-558.2 39.5-31 .6-52.9-2.17-65.7-8.3-43.2-20.8-60.3-93.2-16.6-121.5 41.5-27 85.6-28.3 135.1-33.8 193.07-21.47 362.4-33.23 508-35.3 112.9-1.6 118.2 144.6-2.6 159.4M7235.6 5915.6c-73.2 35.1-276 8.5-298-95-14.9-70.2 41.7-126 108-137.1 72.87-12.27 139.5 1.03 199.9 39.9 79.7 51.3 77.4 150.3-9.9 192.2M11881.6 4626.8c-62.4-316.2 194.1-438.8 460.9-341.8 242.1 88 442.6 230.73 601.5 428.2 58 72.1 112.8 166.1 165.3 250.4 89.8 144.06 199.2 271.5 328.1 382.3.2.13.4.1.5-.1.2-.2.9-.67 2.1-1.4v205c-227.8-222.4-390.2-443.7-574.4-677.5-142.1-180.5-382.6-440.8-632.9-419.5-70.6 6-120.3 36.9-149.2 92.7-99.7 192.8 226.1 476.1 356.1 577.9 190.5 149.06 383.3 295.2 578.4 438.4 24.1 17.7 54 20.6 66.1-10.7 10.7-27.4-11.6-58.6-31.8-75.5-220.1-184.07-433.5-375.46-640.4-574.2-45-43.2-196.6-188.1-148.4-256 83.7-117.7 369.7 198.6 421 258.2 96.5 112.47 191.9 225.93 286.1 340.4 146.1 177.4 304.4 344.9 467.1 507.2.1.13.1.17.2.1.8-.6 1.5-1.1 2.1-1.5v180c-373.3-196.7-759.7-441-1106.4-719.7-188.3-151.3-403.2-335.8-452-582.9M1972.47 5908.92c-56.45-3.45-99.64-48.21-96.48-99.97 3.17-51.76 51.5-90.93 107.94-87.48 56.45 3.46 99.64 48.22 96.48 99.98-3.17 51.76-51.49 90.93-107.94 87.47M7768.8 5794.2c-32.27-150.8-63.3-301.8-93.1-453-7.2-36-24.1-123.9-2.2-153.9 24.5-33.7 66-22.9 81.6 13 15.33 35.2 27.47 75.33 36.4 120.4 33.93 170.27 60.24 341.7 78.9 514.3 2.9 26.5-1.3 60-29.2 70.5-48.3 18.1-65.5-78.9-72.4-111.3M1488.9 5305.1c-2.46-2.4-3.63-5.3-3.5-8.7 1-36.4 30-46.4 63-43.9 322.3 24.7 614.1 86.6 939 158.3 231.3 51 464.4 95.2 697 139.8 106.6 20.5 246.4 48.4 204.7 198.8-20.5 73.7-79.4 145.5-166.7 125.4-34.2-7.94-60.7-15.33-79.5-22.2-349.4-128.47-573.03-209.23-670.9-242.3-257.6-86.87-572.5-180.07-944.7-279.6-11.4-3-24.2-11.54-38.4-25.6M8030.5 5816.7c-35.6-174.67-66.67-370.24-93.2-586.7-4-32.8-1.9-68.4 38.6-71.8 43.8-3.7 66 84.1 74.4 111.7 28.7 94.9 138.7 517 77 585.4-36.8 40.7-87.7 5.9-96.8-38.6M6409.5 5859.4c-47.2 32.3-97.1-12.8-106.5-59.5-12-60.2-28.2-225.8 60.9-240.9 109.7-18.5 98.7 264.1 45.6 300.4M12030.1 5630.68c61.6-9.55 119.7 34.57 129.6 98.53 9.9 63.97-32.1 123.56-93.8 133.11-61.6 9.55-119.7-34.57-129.6-98.53-9.9-63.97 32.1-123.56 93.8-133.11M4805.1 5670.4c285.27-66.33 572.47-122.77 861.6-169.3 142.2-22.8 283.9-29.4 367.4 110 32.2 53.8-23.8 74.3-67.7 58.8-94.67-33.47-189.94-45.67-285.8-36.6-286.6 27.4-579.9 112.8-865.1 183.2-53.9 13.3-129-5.6-104.1-78.1 13.7-39.8 55.6-59.1 93.7-68M719.402 5661.39c16.899-52 68.918-81.7 116.188-66.35 47.277 15.36 71.898 69.97 55.008 121.97-16.899 52-68.918 81.7-116.188 66.34-47.277-15.35-71.898-69.96-55.008-121.96M8308 5746.9c-17.27-109.87-36.44-257.07-57.5-441.6-3.7-32.4 13.7-110.3 60.8-84.8 51.2 27.6 63.1 375.4 68.2 442.8 3.7 49 14 92.4-20.3 117.7-2.46 1.86-5.24 2.8-8.3 2.8-24.73.07-39.03-12.23-42.9-36.9M9601.9 5451.9c55.4-25.5 66 35.2 65.5 73.1-.94 71.07-4.2 130.23-9.8 177.5-6.3 52.9-78.6 51.4-86.3-1.9-3.2-21.7-16.6-227.1 30.6-248.7M1163.88 5718.63c-61.06-9.89-101.82-71.87-91.04-138.44 10.78-66.56 69.02-112.51 130.08-102.62 61.06 9.89 101.82 71.87 91.04 138.43-10.78 66.57-69.02 112.52-130.08 102.63M9089.3 5568.1c40.43 0 73.2 32.77 73.2 73.2s-32.77 73.2-73.2 73.2c-40.42 0-73.2-32.77-73.2-73.2s32.78-73.2 73.2-73.2M9881.8 5702.2c-47.7-21.2-36.4-140.1-31-187.8 4.5-40.3 46.8-64 75.5-28.3 31.4 39 53.8 259.8-44.5 216.1M4372.5 5615.6c-151.73 25.73-339.3 47.37-562.7 64.9-72.6 5.7-155.2-7-119.8-108.4 14-40 85.4-60.3 122.3-64.5 163.94-18.53 328.23-33.63 492.9-45.3 32.2-2.27 53.07-2.2 62.6.2 75.3 19.1 90.1 138.7 4.7 153.1M8618.6 5620.8c-7.4 65-84.9 65.4-95.4 3.4-8.74-51.67-11-119.93-6.8-204.8 3.6-74.2 81.8-85.7 95.7-15.8 13.2 66.73 15.37 139.13 6.5 217.2M11530.7 5628.8c-27.7 45.7-88.6 28.3-112.8-11.4-26.3-43.4-39.8-90.03-40.5-139.9-1.2-83.7 89.3-90.4 128.2-27.8 29.8 47.9 55.9 128.2 25.1 179.1M10206.9 5398.3c43.4 27.4 43.8 134.5 36.2 179.5-13.7 80.1-86.6 68.3-98-2.7-7.9-49.13-12-91.8-12.5-128-.5-41.3 34.7-73.8 74.3-48.8M518.004 5561.55c-45.094-15.26-66.563-72.21-47.953-127.19 18.609-54.98 70.254-87.17 115.344-71.91 45.093 15.26 66.562 72.21 47.957 127.19-18.61 54.98-70.254 87.18-115.348 71.91M4722.6 5457.8c234.67-44.2 469.6-86.9 704.8-128.1 40.1-7.1 147.3-28.4 149.1 22.9 1.1 29.4-43.5 49.2-61.3 53.3-248 56.87-497.47 106.5-748.4 148.9-89.1 15-135-79.9-44.2-97M11711.2 5311.24c39.2-19.03 91.5 7.83 116.9 59.99 25.3 52.17 14.1 109.89-25.1 128.93-39.2 19.03-91.5-7.83-116.9-60-25.3-52.16-14.1-109.88 25.1-128.92M10448.9 5249.8c-1.6-40 39.9-69.5 75.4-51.5 57.4 28.9 117.7 209.6 52.6 249.1-94.1 57.1-125.8-145.8-128-197.6M11192.2 5268.1c25.2 42.2 49.7 99.6 31.7 146-22.8 58.8-89.2 45.6-115-5-19.1-37.6-51-122.2-24.4-160 32.2-45.8 83.7-21.1 107.7 19M3654.5 5054.8c1.6 51.7-83.5 56.4-117.1 58.6-186.8 12.2-375.4 19-561.5 38.1-4.13.47-6.6 2.7-7.4 6.7l-3 15.4c-.87 4.47.96 7.07 5.5 7.8 9.2 1.5 18.1 6.6 26.5 8.1 161.27 29.53 321.24 64.7 479.9 105.5 73.5 18.9 54.7 101.4-7.5 112.4-33.27 5.8-71.87 4-115.8-5.4-164.1-35.4-332.7-75-492.2-106.5-323.47-63.73-648.87-115.3-976.2-154.7-94-11.3-177-26.5-260.1-48.7-82-21.9-103.1-100-3.1-114.5 107.2-15.6 270.6-17.6 404.9-17.8 521.07-1.13 1041.56 15.23 1561.5 49.1 32.3 2.1 64.5 9.8 65.6 45.9M4281.9 5329.8c-157.8 20.4-315.7 39.94-473.7 58.6-29.8 3.46-48.63 3.63-56.5.5-47.8-19.2-54.3-77.8-9.8-104.5 17.8-10.6 37.1-19 58.5-23.1 155.2-29.13 311.27-52.67 468.2-70.6 142.9-16.4 148.1 121.6 13.3 139.1M10714.2 5160.1c-3.4-23.87 4.1-42.57 22.4-56.1 72.7-53.4 140.1 140.4 153.2 183 12.1 39.27 3.2 66.23-26.5 80.9-90.1 44.5-140.4-145.3-149.1-207.8M6842 4767c123.4-205.1 19.2-330.3-181.5-387.5-251.3-71.7-804.3-126.4-867.8 249.5-29.2 172.9 7.4 445.4 191.3 523.6 49 20.87 114.33 28.97 196 24.3 278.9-15.8 519.1-172.3 662-409.9zm-1198.4-282.3c132.2-480.2 753.4-414.6 1099.4-293.8 143.9 50.3 295 149.8 333.5 301.8 25.9 102.5-5.8 200.5-57.2 291.7-178.6 317.3-471.8 583.6-854.2 585.3-488.4 2.2-627.8-498.9-521.5-885M4662.1 5248.6c5.17-3.41 11.14-5.37 17.3-5.7 210.67-11.6 422.5-27.13 635.5-46.6 21.4-1.94 37.17 4.67 47.3 19.8 2.13 3.2 2.7 6.67 1.7 10.4-5.27 19.2-19 30.96-41.2 35.3-187.6 36.67-376.57 64.63-566.9 83.9-22.8 2.3-50.2 7.6-73.8 2.9-54.4-10.8-67.8-68.4-19.9-100M406.313 5175.63c28.589 48.15 7.304 113.59-47.543 146.16-54.848 32.56-122.493 19.93-151.082-28.22-28.59-48.16-7.305-113.59 47.542-146.16 54.848-32.57 122.489-19.93 151.083 28.22M11385.5 5026.98c41.4-23.54 99.2-.04 129 52.49 29.9 52.54 20.5 114.21-21 137.75-41.4 23.55-99.2.04-129-52.49-29.9-52.54-20.5-114.21 21-137.75M9187.5 5152.9c-159.86 11.4-341.53 11.46-545 .2-61.9-3.4-53.2-68.8 3.3-82.1 174.8-41 359.1-71 539.2-69.1 126.7 1.4 110.8 143.3 2.5 151M7163.8 5116.4c-27.8-3.87-50.1-17.53-66.9-41-81.5-114.1 142.7-384.1 256.7-271.7 24.66 24.27 31.2 57.47 19.6 99.6-22.4 81.6-105.7 227.6-209.4 213.1M10990.8 5086.9c-38.2-36.9-105.5-137.7-41.1-179.5 71.8-46.7 127.8 89.5 137.1 137.6 12.7 65.2-57 79.5-96 41.9M0 5088.1v-217.5c149.301 19.1 155.898 222.2 0 217.5M13431 4871.3c2.4-.13 4.5-.94 6.4-2.4l2.6-2v220.8c-139.8-32.4-143.5-208.6-9-216.4M5285.7 4335.3c145.6 8.9 188.9 158.9 154.8 279.8-34.87 123.53-69.26 247.2-103.2 371-34.3 125.1-162.6 69.1-127.8-46.3 30.67-101.6 61.27-203.23 91.8-304.9 8.1-27 21.1-80.9 13.5-105-10.1-32.3-62.7-40-81.7-9.2-11.3 18.3-26.2 48.3-35.6 73.2-48.54 129.2-100.6 256.93-156.2 383.2-20.8 47.4-87.5 108.5-131.9 42.7-12.2-18.1-11.5-45.2-6.2-64.2 54-191 121.4-389.4 243.9-548.4 35.3-45.8 78.3-75.5 138.6-71.9M7711.9 4511.9c35.9-29.9 115.9-40.6 129.3 18.4 15.1 66.6-63.4 111.1-88 155.4-32.47 58.6-47.77 117.53-45.9 176.8 2 63.53 1.24 106.87-2.3 130-8.8 56.5-83.3 86.4-117.1 27.6-24.6-42.7-6.5-179 1-229.2 17.7-118.6 36.4-207 123-279M7969.2 4629c112.8-58.2 265.5-120.5 398.3-113.5 37.6 1.9 82.7 36.4 58.6 73.6-15.5 24-65.7 42.7-93.6 48.6-88.9 18.8-196.1 35.3-268.8 76.2-37.2 20.9-135.5 87-125.9 137.8 6.2 32.2 52.4 54.1 67.8 74.9 48.3 65.3-27.1 129.9-94.7 91.1-184.4-105.7-89.1-312.6 58.3-388.7M430.461 4929.85c-25.023 43.33-78.996 59.01-120.559 35.01-41.566-24-54.98-78.58-29.961-121.91 25.02-43.33 78.997-59.01 120.555-35.01 41.57 23.99 54.984 78.58 29.965 121.91" style="fill:#c6c3c1;fill-opacity:1;fill-rule:nonzero;stroke:none" transform="matrix(.13333 0 0 -.13333 0 1194.6667)"/><path d="M8116.8 4871.3c1.1-66.4 118.1-91.6 170.7-95 209.93-13.47 419.93-25.47 630-36 42.7-2.2 112.6-5.1 121.8 49.7 6.3 37.6-27.2 60.3-59 68.4-229.73 58.93-463.2 92.27-700.4 100-54.8 1.7-164.4-3.4-163.1-87.1M6380.9 4490.8c102.1 14.3 187.2 96.7 185.1 201.5-3.8 189.9-260.4 299.3-382.7 145.6-125.2-157.3-.3-374.9 197.6-347.1M4454.7 4739.5c27.4-63.4 80.2-126.7 136.1-160.4 114.8-69.2 238.4-3.4 160 136.5-38.9 69.4-145.3 213.5-237.1 186.2-71.3-21.2-86.6-98.7-59-162.3M1332.9 3855.5c32.7 12 35.4 59.4 30.2 87.1-42.93 229.54-98.76 490.53-167.5 783-10.67 45.4-21.47 76.7-32.4 93.9-101.5 159-416.302 47.1-378.2-160.2 36.402-198.3 108.902-400.7 184.602-587.3 11.8-29 65.898-160.1 92.298-167.6 46.6-13.3 51.9 34.5 43.3 65.6-43.6 156.4-86.53 312.97-128.798 469.7-23.597 87.47-41.672 165-54.199 232.6-15.902 85.6 88.997 135.1 120.897 45.2 8.47-23.87 17.73-54.47 27.8-91.8 45.8-169.8 109.97-401.8 192.5-696 9.1-32.6 27.6-89.6 69.5-74.2M11282.8 4674.9c42.3 37.2 131.7 176.8 41.9 210.7-69.2 26.1-139.6-91.2-158.2-140-31.4-82.6 58.7-121.5 116.3-70.7M3542.7 4860.7c-46.8-5-102-37.3-72.3-88.1 15.2-26 45.6-41.2 74.3-51.1 217.07-74.93 434.13-150 651.2-225.2 47.7-16.6 114.7-35.4 153.2-10.6 76.6 49.2-.9 128.7-45.7 160.3-224.4 158-484.1 244.6-760.7 214.7M1457.8 4788.9c-42.8-21.2-39.5-87-34.2-127.2 24.4-183.26 50.97-347.27 79.7-492 7.67-38.6 19.5-75.77 35.5-111.5 36.8-82.1 134.6-41.2 136.6 36.9 1.47 60.06-4.77 125.33-18.7 195.8-24.93 126.4-53.1 252.13-84.5 377.2-13.9 55.3-48 153.7-114.4 120.8M9559.6 4555c-60.8-14.5-193 35.9-251.7 60-67.1 40.1-25.9 98.6 29.6 120 61.8 6 123.47 3.63 185-7.1 98.6-12.3 119.7-122.2 37.1-172.9zm5.4 227.1c-42.47 12.26-85.8 18.93-130 20-48.07 6.13-94.86 1.27-140.4-14.6-50.07-15.6-81.16-44.47-93.3-86.6-29-100.5 70.2-155.8 153.3-175.9 65.1-24.8 145.7-46.2 215.6-38.6 48.67 19.33 79.43 56.24 92.3 110.7 33.87 99.47 1.37 161.13-97.5 185M13285.4 4616.9c-13.9-17.7-20.6-57.7-10.4-74.6 38.4-63.27 93.4-79.8 165-49.6v144.2c-63.4 37.6-114.9 30.93-154.6-20M9930.2 4650.8c-21.73 5.73-35.83-2.9-42.3-25.9-2.67-9.27.14-16.4 8.4-21.4 29.8-18.2 123.4-68.3 147.5-39.8 35.6 42-89.2 80.6-113.6 87.1M0 4638.1v-140c53.5 33 41.6992 102.9 0 140M323.23 4397.29c50.153-2.18 92.727 39.83 95.086 93.85 2.36 54.01-36.39 99.58-86.543 101.77-50.156 2.19-92.73-39.83-95.089-93.84-2.36-54.02 36.39-99.59 86.546-101.78M9242.2 4311.6c-2.1 30.7-36.5 57.3-66.8 42.8-17.87-8.53-34.27-23.7-49.2-45.5-78.87-115.74-132.6-241.94-161.2-378.6-24.2-116-141.5-64.3-121.7 33.1 30.2 148.8 82.24 289.14 156.1 421 16.7 29.6 46.3 60.9 60.1 86.2 29.5 53.8-11.5 106.7-68.5 86.2-101.4-36.3-213.3-397.7-238.8-499.3-32.1-127.6-9.9-171.3 80.5-253.6 126.2-114.87 248.27-234.04 366.2-357.5 55.9-58.5 167.6-187.7 206.2-186.4 19.8.6 41.8 27.2 32.1 47.3-128.9 267.8-89.7 545.9-.8 827.3 26 82.1-81.4 99.8-113.7 12.2-50.13-135.8-90.5-256.6-121.1-362.4-17.7-61.2-87.9-57.6-104.6 5-24.7 93.1 46.1 286.5 90.6 378.4 9.4 19.3 56.9 110.5 54.6 143.8M9799.4 4491.9c42-22.07 82.4-38.6 121.2-49.6 32.3-9.1 61.6 31.6 24.4 52.8-35.8 20.4-91 47.9-129.9 52.7-31.6 3.9-47.5-39.2-15.7-55.9M3911.2 4049.7c-2.26-3.73-5.47-4.96-9.6-3.7-266.13 79.4-533.37 154.87-801.7 226.4-22.9 6-42.5 13.8-60.5-4.4-32.7-32.9 40.9-58.3 59.5-64.9 193.67-69.66 388-137.37 583-203.1 170-57.3 571.8-161.4 567.8 146.6-.27 16.93-2.8 31.27-7.6 43-72 174.2-996.1 325.1-1187.2 352.6-14 2.07-23.33-3.67-28-17.2-2.87-8.13-.6-14.37 6.8-18.7 11-6.54 22.4-11.54 34.2-15 204.73-59.4 409.4-119.13 614-179.2 28.4-8.33 56.43-18.07 84.1-29.2 4.47-1.8 5.93-4.97 4.4-9.5l-3.4-9.7c-2.04-5.85-8.17-9.22-14.2-7.8-226.93 52.33-453.33 104.53-679.2 156.6-40.1 9.2-116.8 32.2-119-4.9-.2-3.4 1-6.23 3.6-8.5 10.93-9.74 24.53-17.43 40.8-23.1 285.74-100.06 555.03-188.9 807.9-266.5 42.93-13.2 78.9-25.94 107.9-38.2 4.94-2.06 6.03-5.4 3.3-10l-6.9-11.6M7161.1 4371c-23.7-48.8-17.9-150.5 65.3-128.6 76 19.93 137.94 60.93 185.8 123 44.5 57.8 14.1 142.6-60.6 148.3-78.9 6-158.6-77.6-190.5-142.7M8538.4 4356.6c46.6 50.1 92.1 34.5 151.7 28.7 44.8-4.3 73.1 52.8 27.5 77.3-87.3 47.1-180.4 29.3-248.1-42.5-59.7-63.3-114-181.4-66.1-265.2 32.9-57.7 113.8-86.1 178.5-103.4 61.8-16.6 83.3 55.3 32.4 83.2-51.6 28.1-170.1 49.7-126.8 140.8 17.07 35.87 34.03 62.9 50.9 81.1M8260.8 4312.2c4.5 78.9-221.7 179-292.5 159.5-61.7-17-67.2-93.2-18.8-129.7 54.74-41.13 114.67-71.93 179.8-92.4 53.1-16.7 127.8-3.9 131.5 62.6M10097.4 4434.1c-30.3 6.6-73.1-28-38-49.7 29.5-18.2 121.2-66.6 148.8-33.9 37.4 44.2-87.8 78.6-110.8 83.6M13008.6 4373.6c-69.2 114.6-218.4-52.5-209.2-130.3 17.2-146.3 280.2 12.9 209.2 130.3M10511.2 4291.71c5.3 17.36-15.4 39.22-46.5 48.82-31 9.61-60.5 3.32-65.9-14.05-5.3-17.35 15.4-39.21 46.5-48.81 31-9.6 60.5-3.32 65.9 14.04M10161.9 4244.4c-43.8 24.2-181.3 98.1-226.8 83.1-35.7-11.7-42-62.6-8.2-78.1 59.27-27.26 126.7-52.3 202.4-75.1 31.1-9.4 50.6 1.33 58.3 32.2.7 2.93.3 5.7-1.3 8.3-9.7 16.07-17.8 25.93-24.4 29.6M4674.4 4051.9c-38.87 34.07-43 71.17-12.4 111.3 65.4 85.7 337.5 65.4 359.4-61.7 22.1-128.4-295-95.3-347-49.6zm467.9-36.8c21.93 48.13 16.57 96.93-16.1 146.4-83.8 126.9-265.2 169.3-402.5 146.6-122.4-20.1-209.4-89.8-190.2-222.4 11-76.7 65.3-121.6 134.6-147.7 131.2-49.4 399.2-87.5 474.2 77.1M7799.3 4019.3c-29.9 17.1-256.9 130.1-166.1 184.1 49.4 29.4 150.2-55.7 197.7-89.9 24.5-17.6 99.4-86.4 43.3-113.3-26.5-12.6-51 5.5-74.9 19.1zm164.1-91.2c113.6 144-126.2 305.3-233.5 352.2-72.1 31.6-172.2 35.2-203.3-56.7-47.5-140.5 164.5-265.9 263.9-309.7 60.9-26.8 128.8-41.7 172.9 14.2M9632.3 4255.6c5.4-37.5 141.4-81.6 175.9-92.9 25.4-8.3 54.1-11.2 64 17.7 17.6 51.5-140.1 100.9-173.8 110.4-29.5 8.3-72.1 5.8-66.1-35.2M13357.1 4092.7c-6.1 53-54.5 105.9-112.6 100.6-93.7-8.5-200-179.3-145.2-258.9 89.5-130.1 269.9 51 257.8 158.3M7429.8 3960.1c48.2 54.6-22.9 229.6-112.4 204.9-63-17.3-86.6-80.6-63.1-137.9 24-58.6 117.8-132.3 175.5-67M268.688 3911.44c58.386-25.27 127.218 3.93 153.738 65.21 26.519 61.28.679 131.43-57.707 156.71-58.395 25.26-127.231-3.93-153.742-65.21-26.52-61.28-.684-131.44 57.711-156.71M5571.9 3966.9c126.6-109.4 268.9-146.7 433.1-179.5 150.93-30.07 288.47-52.17 412.6-66.3 104.1-11.8 281.7-10.9 322.8 105.7 17.4 49.4-1.9 90.1-49.1 108.4-19.93 7.73-37.1 9.6-51.5 5.6-140.7-39.4-224.1-62.3-356.5-55.9-166.33 8-323.47 48.2-471.4 120.6-55.6 27.2-114.1 65.6-169.4 100.8-44 27.9-136.9 49.9-140.2-27.8-1.8-42.5 37.5-83.9 69.6-111.6M3922.4 1512.6c16.9-47.1 62.8-71.2 108.7-46 42.3 23.1 58.7 89 73.1 143.5 76.2 288.39 83 557.8 20.5 842.7-102.7 467.8-312.7 987.8-653 1336.4-254.4 260.6-634.1 359.4-988.7 300.2-175.53-29.26-352.63-78.77-531.3-148.5-308.1-120.4-470.7-308.6-530.3-636.7-15.1-83.3 55.2-105.4 89.2-32.3 103.9 224 165.1 423.9 412.7 524.9 261.5 106.6 584.8 134.3 866.1 122.6 539.7-22.6 813.8-460.91 993.3-906.5 66.53-165 126.2-332.47 179-502.4 84.4-271.3 110.1-542.9 7-812.1-17.4-45.2-61.8-142.8-46.3-185.8M8232.7 3862.1c102.4 29.3 283-61.2 369-110.5 37.7-21.6 33.2-66.9-16.1-54.4-115.67 29.14-231.77 56.47-348.3 82-56 12.3-58.5 67.5-4.6 82.9zm127.1-201.5c471.1-72.8 621.7-451.3 942.9-765.3 26.3-25.7 102.7-99.1 146.8-68.9 31.9 21.8 7.8 64-8.1 87.6-199.9 297.5-422.5 580-689.7 820.2-125.1 112.4-424 325.3-596.2 202.3-56.6-40.5-102.1-123.4-60.8-187 47.7-73.51 186.6-76.8 265.1-88.9M11846.3 3792.56c51.4 23.09 77.5 76.48 58.2 119.26-19.2 42.76-76.4 58.71-127.8 35.62-51.4-23.1-77.5-76.48-58.2-119.25 19.2-42.77 76.4-58.72 127.8-35.63M6968.2 3883.9c-112.3-149.6 60.6-312.3 205.1-207.5 208.6 151.4-68.5 389.4-205.1 207.5M9693.8 3801.7c-.1 54-43.3 117.3-98.6 83-118.6-73.4-31.8-691.1-8.5-823.6 28.6-161.9 80-357.3 197.7-479.2 22.1-22.8 65.2-16.9 70.5 15.1 1.4 8.73-.87 21.73-6.8 38.99-99.8 288.61-150.8 586.01-153 892.21-.67 91.13-1.1 182.3-1.3 273.5" style="fill:#c6c3c1;fill-opacity:1;fill-rule:nonzero;stroke:none" transform="matrix(.13333 0 0 -.13333 0 1194.6667)"/><path d="M2637.2 3784.8c-26.7 44.4-89.1 49.9-124.2 15.9-51.3-49.71-27.6-226.5 48.9-241.3 125.9-24.4 114.3 160.4 75.3 225.4M937.996 2549.3c-7.726 136.67-24.965 272.13-51.695 406.4-51.102 257-111.203 512.1-164.899 768.6-11.898 56.6-38.703 108.8-98.597 95.4-50-11.21-78.504-65.7-70.207-114.8 12.336-73.33 35.136-162.36 68.402-267.1 45.402-143.13 88.301-286.97 128.703-431.5 88.895-317.7 103.996-640.7 27.598-962.4-34.602-145.8-80.071-288.2-136.403-427.2C510.496 1294.5 271.699 1037.2 0 827.199V595.602C583.699 1066.2 981.301 1782 937.996 2549.3M7774.7 3603.9c37.7 21.8 60.8 70.6 44.8 113.4-30.3 80.4-263.6 159.9-299.6 47.3-37.6-117.8 165.7-211.9 254.8-160.7M5315 3637.7c28.8 55.4 84.6 47.1 135.1 21.9 75.94-38 151.67-76.33 227.2-115 94.7-48.5 87.4-93.7 71.8-186.6-13.53-80.67-27.1-141.07-40.7-181.2-19-56-77.4-42.4-89.6 12-11.8 52.6-22.23 105.53-31.3 158.8-19.2 112.5-151.6 171.4-258.1 226.8-24.87 12.93-29.67 34.04-14.4 63.3zm-98.4-143.6c56.8-43 136.5-59.2 186.6-100.5 53-43.6 69.1-126.4 78.7-184.2 15.3-93 68.9-202.7 162.9-234.7 101.1-34.5 135.8 57.4 163.4 129.5 36.07 94.33 60.53 187.07 73.4 278.2 16.4 116.2 20.6 216.8-96.2 265.4-161.46 67.27-269.23 113.77-323.3 139.5-69.4 32.9-153.8 53.2-211.8-10.2-60-65.5-127.3-212.2-33.7-283M4511.55 3320.13c-53.65-78.66-161.92-98.25-241.8-43.74-79.89 54.49-101.16 162.43-47.5 241.08 53.66 78.66 161.92 98.24 241.8 43.75 79.89-54.49 101.16-162.44 47.5-241.09zM4407.1 3812.9c-219.9 23.3-390.3-168.9-376.4-377.1 15.8-235.3 249.6-355.3 461.5-265 147.7 62.9 239.9 220.3 202.2 378.4-32.9 137.8-144 248.6-287.3 263.7M2286.69 3548.39c51 15.1 76.94 79.33 57.94 143.46-18.99 64.13-75.73 103.87-126.72 88.76-51-15.1-76.94-79.33-57.94-143.46 18.99-64.12 75.73-103.87 126.72-88.76M2930.4 3762.6c-34.5 33-89.3 24-111.7-15.3-22.7-39.8-20.3-157.8 28.2-180.4 106.8-49.9 154.4 128.2 83.5 195.7M1194.48 3685.03c-34.26 49.84-97.74 65.69-141.8 35.41-44.06-30.28-52.01-95.23-17.75-145.07 34.25-49.83 97.73-65.69 141.79-35.41 44.06 30.28 52.01 95.22 17.76 145.07M4853.79 3655.89c-14.91-49.73 9.53-101.01 54.6-114.52 45.07-13.53 93.7 15.83 108.62 65.54 14.91 49.73-9.53 101-54.6 114.52-45.07 13.53-93.7-15.83-108.62-65.54M12796.9 3494.4c92.6-50.8 197.5 160.9 128.7 205.7-89.6 58.39-209.3-161.5-128.7-205.7M11439.2 2239.4c44.8 119.53 67.6 242.27 68.5 368.2 1 151.8-1.4 344.1-8.2 550.8-5.2 158.6 8.7 315.44 41.8 470.5 19.8 93.2-53.2 85.3-106.8 49.1-35.1-23.7-309.6-207.7-183.7-257.3 39.3-15.5 96.2 53.5 123.5-10.1 3.4-7.94 4.3-18.77 2.7-32.5-24.6-212.5-14.9-425.8-16.1-640.6-.9-154.4-15.9-331.8-80.7-483.8-39.2-91.9-122.4-218-175.5-325.5-152-307.8-218.7-711.4-41-1019.708 30.9-53.453 61.4-107.062 91.6-160.793 87.8-156 109.5-356.297 25.9-516.199-10.8-20.668-34.3-52.77-70.5-96.301-35.8-42.9998-68.7-88.0584-98.8-135.199h190c28.5 57.7305 70.6 128.371 126.3 211.902 126 189.09 83 447.297-28.3 633.098-40.9 68.301-113.8 162.4-144.8 242-93.9 240.6-1.3 557.3 101.9 778.3 48.4 103.9 139.3 259.6 182.2 374.1M1837.43 3605.11c-38.13-35.56-29.83-106.43 18.53-158.29 48.36-51.86 118.48-65.08 156.61-29.53 38.13 35.56 29.83 106.43-18.53 158.29-48.36 51.86-118.48 65.08-156.61 29.53M3263.22 3451.3c46.61 28.89 63.66 85.77 38.07 127.03-25.58 41.26-84.1 51.28-130.71 22.37-46.61-28.89-63.66-85.77-38.08-127.03 25.59-41.26 84.11-51.28 130.72-22.37M6839.3 3297.9c69-13.2 136.9 61 171.5 114.2 47.6 73.1 7.2 112.8-60.7 142.3-79.9 34.6-179.4 61.5-209.5-52.8-19.6-74.4 10.6-186.8 98.7-203.7M7625.6 3441.9c-5.4 50-71.4 91.4-116.2 109.6-92.47 37.6-166.83 25.13-223.1-37.4-145.5-161.8 114.3-340.1 257.8-209.2 30.7 28 86.3 92.1 81.5 137M11754.9 3372.84c42.8-7.25 84.6 29 93.4 80.95 8.8 51.95-18.8 99.94-61.6 107.18-42.8 7.23-84.6-29.01-93.4-80.96-8.8-51.95 18.8-99.93 61.6-107.17" style="fill:#c6c3c1;fill-opacity:1;fill-rule:nonzero;stroke:none" transform="matrix(.13333 0 0 -.13333 0 1194.6667)"/><path d="M5442.9 2530.1c82.73-68.8 169.6-132 260.6-189.6 78.4-49.6 237.8-150.7 303.1-17.2 54.3 111.1 83.4 201.1 163.5 323.9 84.9 129.9 128.5 264.4 162.5 417.9 14.3 64-52.6 117.6-94.9 56.6-18.5-26.7-32.5-63.7-43.6-100.2-62.4-205-155.1-366.5-251.8-544.6-34.9-64.3-66-116.8-142.8-62.6-90.6 64.07-181.34 127.87-272.2 191.4-21.93 15.33-36 27.4-42.2 36.2-35.9 51.4 30 108.6 80 93.2 78-24.11 152.9-49.8 234.9-57.8 135.3-13.1 183.1 116.6 224.3 230.8 43.2 119.6 79.6 241.14 109.2 364.6 38.2 159.6 148.8 30.5 203.5-18.2 42.8-38.2 130.9-37.1 134.2 37.5 3.9 87.9-204.2 197.1-276.3 203.3-103 8.8-139.8-56.1-166-148.8-45.8-162.6-85.5-351.9-177.4-495.7-95-148.5-351.6 156-469-62.4-51.6-95.86-31.46-181.97 60.4-258.3M4366.7 3491.9c-40.81 0-73.9-33.08-73.9-73.9 0-40.81 33.09-73.9 73.9-73.9s73.9 33.09 73.9 73.9c0 40.82-33.09 73.9-73.9 73.9M9430.8 1299.9c6.27 254.74-12.93 507.83-57.6 759.3-82.7 466.4-279.6 1048.1-740.7 1274.29-184.2 90.41-385.1 115.21-582.9 55.51-273.3-82.5-506-322.2-570-603.4-53.5-234.7 35.2-462 251.9-575.9 59.4-31.21 119.13-61.66 179.2-91.4 140.8-69.7 260.2-227.2 251.4-390.2-9.1-169.8-120.3-229.2-253.6-304.61-106.3-60.19-56-169.49 61.4-135.89 151.5 43.39 278.8 147.8 324.1 304 36.5 126.1 34.1 271.5-36.6 378.3-103.2 155.8-263.2 217.1-424.5 300-187.2 96.09-266 276.9-215 477.5 61.2 240.7 260.7 424.2 494 498 340.2 107.7 639.6-94.41 804.2-379 150.1-259.5 225.1-552 267.5-846.6 36.94-256.8 60.4-514.87 70.4-774.2 9-233.2 1.3-434.799-90.9-628.299-64.87-136.199-148.07-266.531-249.6-391-59.6-73.071-135.74-118.43-228.4-136.1018-46.4-8.7969-99.4-34.8984-85.7-90.1992H8921c14.54 17.6016 29.23 34.9297 44.1 52 112.4 129.301 211.8 289.402 282.1 428.602 130.4 258.3 176.4 527.888 183.6 819.298M3481.1 3163.49c58.2 28.61 61.1 96.61 8.5 133.51-47.1 32.9-142.8 28.1-175.2-26.3-23.07-38.67-18.34-73.53 14.2-104.6 36-34.3 113.6-21.7 152.5-2.61M1885.28 3151.63c22.2 51.54 5.81 108.12-36.59 126.39-42.41 18.26-94.78-8.71-116.97-60.26-22.2-51.53-5.81-108.11 36.59-126.37 42.41-18.27 94.78 8.71 116.97 60.24M1070.13 3267.94c-39.83-15.53-56.5-68.16-37.24-117.56 19.26-49.39 67.15-76.85 106.98-61.32 39.83 15.53 56.5 68.16 37.24 117.56-19.26 49.39-67.15 76.85-106.98 61.32M7300.4 2954.8c44.1 24.7 75.1 87.3 52.6 137.2-35 77.5-213.5 184.7-266.6 64.5-56.1-126.9 88.4-272.1 214-201.7M6852.8 2232.3c-153.53 4.87-306.93 12.63-460.2 23.3-117.5 8.1-146.3 72-78.3 168 75.2 106.14 130.4 200.9 165.6 284.3 60.13 142.4 98.43 231.34 114.9 266.8 32.5 70 107.9 74.1 102.7-19.7-7.3-133.4-16.8-264.2 29.2-393 36.5-102.2 101.2-171.1 162.3-251.2 30.2-39.5 15.5-80.2-36.2-78.5zm200.6 1.5c-16.4 135.1-114.5 240.8-191.1 345.5-68.1 93.3-58.3 170.7-47.1 278.8 12 115.5-3.3 191.9-78.4 286.3-83.9 105.5-180.7 46.8-223.9-52.5-50.5-115.8-97.9-262.5-159-377.3-28.33-53.33-58.83-105.47-91.5-156.4-34.6-54-74.17-125.56-118.7-214.71-87.5-175 67.7-195.89 188.8-210.79 203-25 405.7-29.7 609.7-29.4 87.5.19 121.4 45.8 111.2 130.5M12599.1 3130c5.9 9.85 3 22.56-6.6 28.8-44.2 29-174 32.3-219.1 5.3-39.4-23.6.9-55.2 26.6-58.7 44.2-6.1 172.4-20 199.1 24.6M5305.64 3004.66c31.78 1.56 56.4 26.11 54.99 54.85-1.41 28.74-28.3 50.78-60.07 49.23-31.78-1.55-56.39-26.11-54.99-54.85 1.4-28.74 28.3-50.79 60.07-49.23M11704.2 2966.15c27.9-45.58 82-63.31 120.7-39.59s47.4 79.9 19.5 125.49c-27.9 45.59-82 63.31-120.7 39.59s-47.4-79.9-19.5-125.49" style="fill:#c6c3c1;fill-opacity:1;fill-rule:nonzero;stroke:none" transform="matrix(.13333 0 0 -.13333 0 1194.6667)"/><path d="M8198 1251.8c-89.5-52.1-198.9-56.3-295.4-92-144.3-53.2-232.7-173.398-278.6-316.698-63.6-198.301 104.3-324.61 242.6-427.801 70.67-52.66 159.86-116.371 267.6-191.102 27.1-18.801 59.9-39.898 91.1-20.297 40.6 25.399 13.4 72.797-9.9 98.996-111 124.602-251.3 228.094-381 336.102-98.1 81.699-108 205.301-17.2 293.699 71 69.201 188.7 75.201 263.3 101.501 198.9 70 381.1 217.4 465.5 412.1 82.3 190 52.3 388.4-34 573.4-107.5 230.4-290.9 288-499 381.9-29.9 13.5-66.6 34.1-87.5 51.89-136.9 116.41-15.5 341.91 87.7 433.51 48.8 43.4 115.4 75.1 176.8 105.5 27.2 13.47 38.87 32.87 35 58.2-9.9 65-98 37.7-136.4 20.29-172.14-78.06-282.77-208.73-331.9-391.99-53.5-199.8 42.7-307 218.1-372.2 269.8-100.4 450.8-257.5 471.2-564.5 12.9-192.8-79-392-248-490.5M4337.4 2869.5c90.93 13.94 181.56 29.46 271.9 46.6 28.2 5.4 70.6 20.2 54 52.6-16.7 32.29-87.3 25.6-119 22.1-64.9-7.2-303.8-30.8-316.7-87.8-12-53.6 83.7-37.5 109.8-33.5" style="fill:#c6c3c1;fill-opacity:1;fill-rule:nonzero;stroke:none" transform="matrix(.13333 0 0 -.13333 0 1194.6667)"/><path d="M9028.1 885c3.6 508.2-67.34 1009.9-212.8 1505.1-52.19 177.73-122.17 357.63-209.9 539.7-19.4 40.1-45.3 74.2-91.6 49.3-3.07-1.67-5.2-4.17-6.4-7.5-6.6-18.8-8.44-32.73-5.5-41.8 208.8-641.31 362.6-1295.9 397.6-1969.8 11-211.699-16.3-418.801-208.1-537-49-30.199-115.1-53.699-173.4-75.898-165.8-63.2-158-311.7036-343.7-318.6997-38-1.5-82.4 6.7969-109.9-28.4023h360c28.6 59.8008 65.5 113.469 110.7 160.992 47.9 50.309 110.1 73.309 177.4 106.41C8948 383.301 9026.4 640.699 9028.1 885M3584.5 2909.8c-.1 94.1-182.2 86.8-222 22.8-20.13-32.27-20.2-62.2-.2-89.8 50.6-69.6 222.2-24.2 222.2 67M7018.09 2639.3c56.89-45.41 134.7-42.51 173.81 6.47 39.12 48.99 24.7 125.52-32.19 170.93-56.89 45.42-134.71 42.52-173.81-6.48-39.11-48.98-24.7-125.51 32.19-170.92M12335.9 2738.1c2.5-55.2 170.7-39.5 200.9-34.8 68.9 10.5 45.1 68.1-11.1 75.5-31 4-192.4 16.3-189.8-40.7M4736.8 2688c36.2 29.5 23.1 75.7-21.8 84.1-9.53 1.8-32.57.83-69.1-2.9-71.7-7.3-393.9-39.2-424.8-102.8-15.5-31.8 21.1-64.6 51.5-59.3 134.6 23.4 269.6 44 405 61.8 28.46 3.74 48.2 10.1 59.2 19.1M8296.29 2579.26c31.99 2.52 56.13 27.27 53.93 55.3-2.2 28.03-29.93 48.7-61.91 46.18-31.99-2.52-56.13-27.27-53.93-55.3 2.2-28.02 29.93-48.7 61.91-46.18M3549.92 2578.62c-15.74 44.45-75.44 63.88-133.33 43.38-57.89-20.5-92.05-73.16-76.31-117.62 15.74-44.46 75.44-63.88 133.33-43.39 57.89 20.51 92.05 73.17 76.31 117.63M6609.4 2559.5c-10.53 18.54-26.27 26.53-47.2 23.99-3.33-.45-6.07-1.96-8.2-4.49-29.8-35.6-114.5-155.8-80.1-192.8 27.8-30 140.6-22.3 179-17.71 53.1 6.41 35.7 40.61 19.2 74.01-16.73 33.87-37.63 72.87-62.7 117M11969.4 2516.9c-188.1 36.5-328.6-440.4-360.9-565.7-80.6-312.4-141.7-666.7-98.1-995.098 20.4-154.204 78.3-316.801 135.6-464.602 83.8-216.102 68.2-355.508-129.1-491.5h220.7c74.7 79.4609 130.2 163.902 166.5 253.301 139.3 342.5 94.5 744.097 69.3 1104.199-16.3 233.13-10.8 465.47 16.4 697 11.4 97.4 39.3 223.7 50.4 310.5 8.5 66.2-.9 138.4-70.8 151.9M4781.3 2430.8c9.2 51.9-48.1 66.4-88.1 60.7-98.33-13.93-195.04-34.93-290.1-63.01-86.8-25.59-77.2-115 17.1-101.79 107.4 15.07 213.83 35.5 319.3 61.3 16.9 4.1 38.4 23.8 41.8 42.8M9756.4 1788.1c-3.27 143.13-15.93 297.3-38 462.5-6.4 47.8-25 210.39-86.5 211.4-64.7 1-57-75.1-53.6-116.4 28.1-338.8 55.5-701.8 32.6-1049.8-29.4-445.902-164.7-934.999-439-1295.8h198.6c360 538.492 400.2 1161.4 385.9 1788.1M7215 2414.6c-43.5-31.8-45.7-93.8-11.7-134.2 38.5-45.8 106.2-82.8 167.3-89.9 31.1-3.7 62.6 12.6 67.3 44.3 10.9 74.6-136.2 243.2-222.9 179.8M3101.88 2369.61c-.86 28.97-27.3 51.71-59.04 50.77-31.74-.95-56.78-25.21-55.92-54.19.86-28.97 27.29-51.71 59.04-50.77 31.74.95 56.77 25.2 55.92 54.19M1926.51 2322.7c-.67-32.24 26.71-58.96 61.17-59.68 34.45-.73 62.93 24.83 63.61 57.08.67 32.24-26.71 58.96-61.17 59.68-34.45.73-62.93-24.83-63.61-57.08M12320.1 2311.4c-49.4-76.4 233.2-61.3 258.9-35.7 76.7 76.3-228 83.3-258.9 35.7M3514.23 2207.1c-10.9 46.85-71.1 72.88-134.47 58.13-63.37-14.74-105.9-64.67-94.99-111.53 10.9-46.86 71.1-72.88 134.47-58.13 63.37 14.74 105.9 64.67 94.99 111.53M3050.73 2046.11c29.87.63 53.63 23.11 53.06 50.23-.57 27.11-25.25 48.57-55.12 47.95-29.87-.63-53.63-23.11-53.06-50.22.57-27.12 25.24-48.58 55.12-47.96M5776.5 1965.2c9.7 45.9 26.4 109-2.5 149.3-30.8 43-85.4 36-116.2-2.8-15.33-19.2-24.83-41.4-28.5-66.6-34.5-233.2-67.7-449-115.7-667.8C5413.3 919.398 5314.2 469.602 5369.4 0h205c-65.2 421.5-42.4 822.801 46.7 1237.7 52.06 242.46 103.87 484.96 155.4 727.5M4632.9 2112c-32.9 28.9-216.5 22.4-225.9-38.2-10.8-69.9 147.5-46.2 180.9-39.5 34.5 7 79 47.9 45 77.7M7728 1927.5c-9.4-57.1 14.7-190.8 85.5-210.2 19.6-5.4 38.7.36 57.3 17.3 218.1 198.5-111.1 383.5-142.8 192.9M6613.3 1837c-4.2 57.7-73.2 89.9-123.2 100.3-135.47 28.2-272.2 48.07-410.2 59.6-61.6 5.1-119.4-25.4-126.3-91.8-13.2-127.5 199.7-139.5 279.5-142 100.73-3.13 201.3-3.97 301.7-2.5 45.4.6 82 29.4 78.5 76.4M3362.82 1767.61c57.18 14.25 94.39 62.48 83.11 107.7-11.28 45.24-66.77 70.34-123.95 56.09-57.18-14.26-94.39-62.49-83.11-107.71 11.28-45.23 66.77-70.34 123.95-56.08M7395.1 1887.7c-86 29.9-472.7 92.4-512.1-36.8-18.2-59.5 33.6-102 89.5-108.2 140.6-15.6 284.1-4.6 424.8 4.9 114.6 7.7 71.2 114.5-2.2 140.1M12662.2 1856.8c-116-3.4-231.9-7.77-347.8-13.1-111-5.1-108.5-110.6 3.1-110.8 153.1-.14 276.4 2.93 370.1 9.2 68.6 4.7 69.7 117.5-25.4 114.7M1353.6 833.699c53.2 18.801 114.5 95.403 150 141 134.8 172.801 220.4 401.601 253 617.601 10.33 68.67 12.27 130.4 5.8 185.2-6.1 52.4-66.4 86.7-105.3 42.7-30.2-34.3-44.3-132-54.4-177.7-43.13-196.47-112.97-382.43-209.5-557.9-25.3-46-108.5-142.1-113.3-190.401-4-39.5 34-74.5 73.7-60.5M4447.76 1669.63c63.33 10.71 109.18 51.84 102.41 91.86-6.77 40.03-63.6 63.79-126.93 53.08-63.33-10.71-109.18-51.84-102.41-91.87 6.77-40.02 63.59-63.79 126.93-53.07M5891.9 1289.4c137-88 240.8 60.6 188.8 187-24.9 60.6-83.1 111.2-148.4 93.8-103.8-27.7-132.2-221.9-40.4-280.8M7055.2 1388.2c-40 91-137 183.7-245.1 161-65.4-13.7-101.2-65.5-99.5-132.8 1.67-70.4 32.94-129.4 93.8-177 120.5-94.3 335-42.8 250.8 148.8M7545.5 1318.8c-52.67-101.54-104.7-203.43-156.1-305.7-20.2-40.299-35.8-93.1 10.6-117.6 67.3-35.5 111.9 54.199 138.6 102.199 75.34 135.461 144.8 273.931 208.4 415.401 13.6 30.1 33.5 75.6 10 104.4-67.1 82.1-186.4-150.4-211.5-198.7M7400 1474.8c-30.9 80.4-105.4 25.4-124.8-25.3-34.8-90.6-68.9-181.6-120.2-265.3-32.7-53.5-85.5-127.5-95.1-186.598-12.5-77.704 75.2-138.102 139.6-86.403 11.94 9.531 24.8 27.5 38.6 53.903 66.87 127.468 117.94 261.028 153.2 400.698 7.7 30.4 17.3 86.8 8.7 109M4537.8 1505.3c-55.8 14.8-319.1 12.9-305.9-93 10.3-83.4 247-42.7 300.6-32.3 75.6 14.6 79.3 105.6 5.3 125.3M6414.6 1200.5c22.73 3.8 43 19.3 60.8 46.5 50.8 77.8 26.5 177.8-46.3 232-68.9 51.2-131.1-5-134.6-76.4-3.1-62.8 23.9-218.1 120.1-202.1M2039.1 1134.5c74.6-29.9 136 43.8 74.9 102.1-39.3 37.4-212.4 207-256 102.9-33.7-80.4 127.8-183.7 181.1-205M12634.3 1357.2c-103.9-3.13-202-9.63-294.3-19.5-81.6-8.7-91.7-116.2-2.5-114.6 106.4 2 212.6 6.97 318.7 14.9 26.8 2.07 45.5 5.9 56 11.5 49.9 26.7 38 99.9-21.8 108.9-1.6.27-20.3-.13-56.1-1.2M4051.9 877c106.53-31 213.47-60.629 320.8-88.898 44.4-11.7 101.6-25.301 130.3 20.097 41.2 65.102-11.7 98.301-67.9 112.199-115.4 28.473-230.93 56.704-346.6 84.702-84.5 20.5-51.2 101.4-42.3 158.9 14.4 93-100.4 95.1-123.3 5.7-34.34-134-59.87-237.13-76.6-309.399-11.33-49.129-14.7-86.199-10.1-111.199 25.2-134.801 203.4-168.11 314.1-195.403 89.8-22.199 180.53-40.027 272.2-53.5 95.8-14.097 108.1 85.703 37.4 113.293-85.27 33.278-220.16 78.137-404.7 134.61-28.07 8.527-46.73 18.8-56 30.8-34.7 44.899-10.1 116.399 52.7 98.098" style="fill:#c6c3c1;fill-opacity:1;fill-rule:nonzero;stroke:none" transform="matrix(.13333 0 0 -.13333 0 1194.6667)"/><path d="M4217.3 1106.9c75.6-15.27 151.66-26.76 228.2-34.5 57.3-5.8 106.3-17.9 126.8 38 14.2 38.6-3.5 72.4-44.8 79.4-97.4 16.6-195.1 30.8-293.1 42.6-106 12.8-111-106.5-17.1-125.5M838.5 808.801c114.066 87.258 208.07 192.499 282 315.699 86.8 137.4 133 290.7 165.3 450.4 35.46 175.07 59.23 351.77 71.3 530.1 8.9 160.8 14.7 330.8-15.9 489.7-11.2 58.1-69.8 131.6-129.2 63.79-23.9-27.29-25.3-61.59-26-102.79-2.73-156.13-2.1-312.2 1.9-468.2 3.1-332.5 16.2-601-132.5-855-94.099-155.2-205.697-255.301-357.404-350.699C420.602 707.402 280.496 411.602 0 240.602V23.1016C99.8008 87.4297 190.305 162.5 271.5 248.301c94.5 99.801 164.102 221.801 260.102 317.5 93 92.801 204.097 164.5 306.898 243M5824.4 849.398c102.3-60.199 154.4 66.403 240.5 96.801 114.1 40.301 161.7-80.297 206.8-168.597 43.1-84.5 135.7-28.2 118.9 45.097C6329 1091.7 6055.1 1219.2 5837 1020.4c-42.1-38.4-76.4-133.502-12.6-171.002M8303.74 981.109c-87.27-76.379-94.89-210.41-17.05-299.328 77.85-88.929 211.71-99.101 298.97-22.699 87.26 76.398 94.9 210.418 17.05 299.348-77.86 88.92-211.7 99.08-298.97 22.679M6835.11 859.211C6812 966.09 6729.46 1038.94 6650.76 1021.93c-78.71-17.02-123.78-117.461-100.67-224.34 23.11-106.891 105.65-179.738 184.35-162.719 78.7 17.008 123.77 117.461 100.67 224.34M9910.4 967.5c-5.8-16.93-9.1-36.098-9.9-57.5-3-81.129-12.77-175.238-29.3-282.301-34.7-223.797-123.7-434-234.3-627.699h137.5c128.8 243.332 204.77 501.699 227.9 775.102 3.7 43.699 13 168.597-10.6 204.199-26.4 39.999-67 29.599-81.3-11.801M1944.8 721.199c52.1 13.403 44.8 74.602 14.7 106.403-39.3 41.398-145.4 185.398-204.3 139-68.7-54 2.2-139.102 51.8-183.301 39.3-35 83.3-76.199 137.8-62.102M10833.2 805.531c-50.4-13.422-79.4-69-64.7-124.121 14.6-55.14 67.4-88.961 117.9-75.531 50.4 13.422 79.4 68.98 64.7 124.121-14.6 55.141-67.4 88.941-117.9 75.531M1597.2 654.801c-67.8 41.5-146.1-23.301-93.3-93.199 33.8-44.801 149.7-154.903 202.3-154.801 51.3 0 62.5 52.801 38 90-33 50.301-94.5 125.801-147 158M7938.3 220.992c-219.8 166.906-346.2 270.707-527.8 366.61-78.9 41.699-281.8 108-343.3 12.796-37.5-58.097 23.3-114.898 82.8-102.597 123.8 25.601 218.6-29.5 315.4-95 137.13-92.871 275.73-183.442 415.8-271.699 39.1-24.7 95.4-51.8012 120 10.097 1.4 3.543 1.23 6.961-.5 10.301-12.26 24.07-33.06 47.23-62.4 69.492M1400.7 325.398C1315.9 379 1226.2 406.801 1189 510.902c-15.13 42.399-25.87 68.528-32.2 78.399-29.4 45.898-101.2 39.601-113.8-14.399-19.4-82.902 43.2-202.004 104.7-257.5 63.9-57.703 157.2-80.402 216.4-136.902 48.8-46.398 83.1-111.0977 70.3-180.5h146.1c-1.27 141.93-61.2 250.398-179.8 325.398M2812.2 409.801c-112.4 95.597-261.8 183.301-410.4 201.5-302.6 37-484.7-390.602-564.9-611.301h130.8c73.6 201.301 299.1 528.602 558 365.301 102.9-64.903 150.7-139.602 214.7-232.199 26.93-39.0707 50.3-64.1997 70.1-75.4028 59.3-33.5976 130 1.9024 151.9 63.9998 35.8 101.793-80.2 228.5-150.2 288.102M12314.6 612.199c-40 1.602-72.5-37.5-80.6-72-42.6-182.597-94.1-362.66-154.6-540.199h160c37.5 132.07 76.1 263.801 115.8 395.199 18.8 62.301 63.5 212.699-40.6 217M6692.9 125.5c-51.27 180.469-164.74 303.5-340.4 369.102-60.66 25.328-123.03 45.468-187.1 60.398-36.3 10.5-151.4 49-183.5 41.301-26.7 14.5-67.3 24.691-80-10.801-1.07-3-1.17-6.039-.3-9.098 5.07-17.933 11.2-30.101 18.4-36.5 109.2-95.941 230.63-196.132 364.3-300.601C6399.77 148.961 6506.9 69.1992 6605.7 0h108.7l-2.3 17.5-19.2 108M6820 332c-8.26-49.059-2.97-96.699 15.9-142.898 27-66 110.9-112.9028 150.5-30.801 31.1 64.398 38.5 173.5-21.4 228.398-59.4 54.5-131.2 27.102-145-54.699M3545.2 384c-20.46-1.199-61.5-14-123.1-38.398-60.86-24.141-122.3-46.801-184.3-68-41.4-14.11-114.9-62.5-80.2-113.903 56.4-83.5974 374.5-47.297 444.1-37.797 184.6 25.2 99.2 266.996-56.5 258.098M4359.7 319.301c-94.6 38.398-209.1 38.398-309.7 38.801-101.5.39-106-110.204-35.5-158.5 83.7-57.2 226.5-62.2 326.9-49.903 113.6 14 123.6 126.801 18.3 169.602M7197.1 329.801C7127.4 250.602 7143.8 95.6992 7179.4 0h202.5c-37.7 27-129.1 109.301-77.7 159 13.9 13.5 35.7 10.801 50.2.5C7442.93 97.1016 7522.5 43.9297 7593.1 0h232.4c-148.54 120.469-305.13 227.5-469.8 321.102-52.3 29.699-105.9 68.699-158.6 8.699M10816.2 336.289c-65.1 7.293-124.4-44.93-132.5-116.668-8-71.73 38.2-135.8007 103.3-143.1093 65.1-7.2929 124.4 44.9293 132.5 116.6683 8 71.73-38.2 135.8-103.3 143.109M5727.2 215.5c-14-28.301 18.9-56.898 37-69 50.6-33.602 126.43-80.5586 227.5-140.89844 1.53-.92968 1.63-2 .3-3.19922L5989.4 0h205c-120.33 69.2695-240.27 139.199-359.8 209.801-29.3 17.301-84.9 51.301-107.4 5.699M678.398 193.102c-89.296-31.5-183.496-125.0004-254-193.102h199c16.403 22.5391 40.801 41.1719 73.204 55.9023 36.664 16.668 72.562 16.9297 107.699.7969C830.969 44.4297 853.766 25.5391 872.699 0H1076.9c-64 156.5-237.502 250-398.502 193.102" style="fill:#c6c3c1;fill-opacity:1;fill-rule:nonzero;stroke:none" transform="matrix(.13333 0 0 -.13333 0 1194.6667)"/><path d="M2181.9 0h242.5c-77.9 50.9023-188.3 137.602-242.5 0M13310.3 8572.5c-77.6-76.6-153.9-145.43-229-206.5-20.8-16.9-49.3-19.7-62.2 7.9-22.2 47.1 186.1 222.7 228.3 258.7 52.5 44.8 115.4-8.2 62.9-60.1zm-17.6 169.9c-125.8-1.5-286.9-168.3-337.8-274.3-27.6-57.4-37.6-154.4 15.5-200.9 45.2-39.7 112.1-16.4 155 19.8 74.1 62.54 147.4 125.87 220.1 190 21.1 18.6 39.2 39.47 54.3 62.6 64 97.6 9.9 204.1-107.1 202.8M12862.7 3044.9c-28.5-126-40.9-257.64-37.2-394.9 8.5-310 71-621 159.5-917.5 64.8-217 167.9-478.5 455-418.1v265c-189.7-59.1-281.3 76.3-332 231.2-59.4 181.33-101.1 366.7-125.1 556.1-41.1 324.2-33.5 992.2 457.1 991.9v225.8c-279.2-59.3-513.2-256.5-577.3-539.5" style="fill:#c6c3c1;fill-opacity:1;fill-rule:nonzero;stroke:none" transform="matrix(.13333 0 0 -.13333 0 1194.6667)"/><path d="M13110.1 2504.3c9.5-198.93 36.2-395.53 80.1-589.8 28.9-128.2 85.2-284.7 249.8-208.2v103.1c-21.8-39.6-69-54.4-101.6-24.3-77.5 71.7 63.3 167.8 101.6 59.3v1042.7c-66.8 39-84-14.8-87.7-68.1-17.8-256.3 5-515.2 16.2-771.4 1.1-26.1-.4-88.6-33.8-97.5-38.5-10.27-60.6 4.1-66.3 43.1-40.5 280.7-75.2 583.7-31.9 859.3 16.3 103.7 95.5 178.2 203.5 164.4v102.5c-330.4 16.4-340.6-391.8-329.9-615.1M12331.6 3528.2c-55.1 0-99.8 44.68-99.8 99.8 0 55.11 44.7 99.8 99.8 99.8 55.1 0 99.8-44.69 99.8-99.8 0-55.12-44.7-99.8-99.8-99.8zm225.7 437.2c-50.7-15.26-147.6-53.47-290.5-114.6-96.6-41.4-175.3-106.9-164.2-223.3 11.7-121.9 129.2-232.4 252.9-235.6 140.2-3.6 193.2 131.2 227.9 243.3 17.9 57.8 80.3 254.1 51.8 303.3-16.6 28.53-42.6 37.5-77.9 26.9M12550.7 249.301c-49.5-70.399-92.5-153.5002-128.8-249.301h198.9c42.3 81.8008 95.6 154.43 159.9 217.898 188.9 186.801 431 214.602 656.1 375.403.3.262.7.262 1 0 .6-.403 1.3-.871 2.2-1.399v232.496c-178.2-125.496-351.5-206.199-533.1-301.398-132.3-69.301-270.3-151.598-356.2-273.699M13406.9 0c-.5 1.67188-1.5 2.73047-2.9 3.19922-1.3.40234-1.4 1.04297-.4 1.90234 10.5 9.14064 22.6 13.89844 36.4 14.30074V236.902L12996.9 0h410M10609.5 1430.95c-10.2-23.33-35.4-34.89-56.2-25.79-20.8 9.09-29.4 35.37-19.2 58.7 10.2 23.33 35.4 34.87 56.2 25.79 20.8-9.09 29.4-35.37 19.2-58.7zm-40.7-231.15c-2.8-25.87-24.1-44.82-47.7-42.34-23.6 2.48-40.6 25.47-37.9 51.34 2.8 25.87 24.1 44.82 47.7 42.34 23.6-2.48 40.6-25.47 37.9-51.34zm-123.6 522.7c-5.4-19.74-14-35.47-25.7-47.2-9.4-9.38-24.5-9.81-34.4-1-12.5 11.13-18.1 25.53-16.9 43.2 17.2 249.3 59.9 505.9 59.9 737.5 0 80.54-6.5 202.2-19.5 365-5.7 70-30.4 230.7 91.9 218.9 52-5 76.3-44.4 77.6-93.3 11-418-22.2-818.8-132.9-1223.1zm-15.1-259.5c-6.1-24.37-29.4-39.51-51.9-33.81-22.4 5.69-35.7 30.05-29.5 54.41 6.1 24.37 29.4 39.5 51.9 33.81 22.4-5.69 35.7-30.05 29.5-54.41zm-50-278.2c-24.2 0-43.8 19.61-43.8 43.8 0 24.19 19.6 43.8 43.8 43.8 24.2 0 43.8-19.61 43.8-43.8 0-24.19-19.6-43.8-43.8-43.8zm164 1997.86c-11-47.22-57.1-76.85-103-66.18-45.9 10.69-74.2 57.62-63.2 104.86 11 47.22 57.1 76.85 103 66.18 45.9-10.69 74.2-57.63 63.2-104.86zm-169.5 290.68v.01c8.3 48.95 55.6 81.77 105.7 73.29 50.1-8.48 84-55.03 75.7-103.98-8.3-48.96-55.6-81.77-105.7-73.31-50.1 8.48-84 55.03-75.7 103.99zm162.8 270.46c40.5 0 73.3-32.81 73.3-73.3 0-40.48-32.8-73.3-73.3-73.3s-73.3 32.82-73.3 73.3c0 40.49 32.8 73.3 73.3 73.3zm202.6 76.6c22.3-3.8 38.8-15.6 49.6-35.4 3.9-16 3.8-31.8-.3-47.4-14.3-15.46-30.8-25.63-49.3-30.5-74 12.2-55.8 91.39 0 113.3zm170.1-1767c47.7 348.9 37.2 706.8 102.5 1051 3.7 19.4 11.1 39.2 22.3 59.4 35 63.4 82.5 13.6 82.4-38.8-.7-255.2-9.2-487.46-25.6-696.8-1.8-22.7-12.8-97.9 29.6-89.1 26.9 5.6 33.9 53.3 37.6 76.6 37.3 231.94 63.1 448.3 77.5 649.1 8.7 121.4-12.9 334-189.2 300.2-141-27-158.4-309.01-169.6-420-17.2-169.27-33.2-338.6-47.9-508-23.7-272.07-79.4-537.3-167.2-795.7-4.2-12.46-8.9-24.8-14.2-37-18.1-41.9-59.9-14.6-56.8 23.3 28.8 359.7 114.9 713.39 120.8 1074.4 3 189.5-27.7 380.2-36.6 570.5-6.7 143.53 28.2 269.36 104.7 377.5l27.1 29.6 50.4 55.4c45.9 48.73 85.5 102.3 118.6 160.7 1.9 3.33 1.6 6.44-1 9.3l-35 38.7c-3.5 3.87-7.3 4.13-11.4.8-33.2-27.53-69.5-49.97-108.8-67.3 121.8 86.6 231.1 164 287.2 265.3 156 281.3-57.4 510.5-264.4 670.9-233.9 181.13-484.9 335.03-753 461.7-170.4 80.6-362.4 126.2-524.9 3-28.7-21.8-62.7-63.1-74.5-93.9-49.2-127.9 48.6-203.5 147.5-253.6 173.4-87.9 346.2-164.3 523.8-256.1 55.7-28.8 128.5-65.9 95.2-142.8-39-90.2 91.2-71.5 132.8-73.6 92.3-4.7 327.6-56.2 303-195.1-12.3-69.7-85.7-107.9-150-125.9-135.5-37.9-263.7-60.3-395-128.3-197.3-102.3-269.6-283.6-275.4-496.3-7.4-272.9 43.4-546.9 104.5-811.8 17.2-74.53 27.6-133.9 31.2-178.1 10.8-130.6 1-276.5-11.5-394.5-20-187.67-39.87-375.37-59.6-563.1-4.4-41.2 34.9-91.2 66.3-43.2 12.7 19.47 24.5 51.9 35.6 97.3 62.9 258.33 100.1 520.3 111.4 785.9 5.5 130.66.2 241.3-16 331.9-46.8 261.59-90.6 482.2-90.3 725.4 0 74.4 9.7 164.2 30.4 228.1 123.4 381.7 538.3 250.1 726.3 508.3 136.6 187.6-22.6 286.3-167.8 361.9-296.1 154-598.8 289.5-890.5 452.9-23.4 13.1-63.2 38.3-75.7 60.1-56.5 98.4 138.7 97.1 180.9 89.4 178.8-32.7 323.7-103.2 488.3-194.8 157.2-87.53 307.3-186 450.4-295.4 128.2-98.1 283.4-249.4 208.5-430.4-48.9-118.2-155.5-188.6-261.5-250-75.3-43.6-142.8-85.43-202.7-125.5-261.1-174.7-285.1-462.5-261.6-746.2 12.6-152.6 31.3-304.5 56.1-455.7 22.4-136.53 24.5-276.3 6.2-419.3-21.3-167.07-47.4-403.44-78.5-709.1-13.9-136.6-43.5-362.2 32.9-475.8 49.3-73.472 119.8-101.628 211.4-84.499 139.2 25.999 196.6 210.399 235.5 324.899 83.2 245.26 142.3 496 177.3 752.2M10521.7 554.402c-13.7 114.899-124.6 198-239.2 164.297-79.3-23.301-130.4-96.5-155.3-173.699-41.7-129.199-82.9-286.801-53.8-414.398 15.1-66.5317 24.1-110.0629 27-130.602h156.5c-27.3 103.301-76.6 183.102-58.1 295.301 10.3 62.398 49.3 215.097 103.6 252.5 36.8 25.398 72.4 1.898 78.6-39.903 1.9-12.328 1.7-34.929-.6-67.796-10.3-147.403-31.9-293.2-3.5-440.102h175c-125.7 146.801-8.3 370.699-30.2 554.402M9326.5 7725.4c0-40.37-32.73-73.1-73.1-73.1s-73.1 32.73-73.1 73.1 32.73 73.1 73.1 73.1 73.1-32.73 73.1-73.1zm45.3-235.4c0-27.67-22.43-50.1-50.1-50.1s-50.1 22.43-50.1 50.1 22.43 50.1 50.1 50.1 50.1-22.43 50.1-50.1zm71.4-459.3c0-53.68-43.52-97.2-97.2-97.2-53.69 0-97.2 43.52-97.2 97.2s43.51 97.2 97.2 97.2c53.68 0 97.2-43.52 97.2-97.2zm-235.81 228.07c-19.79-18.53-52.36-15.9-72.74 5.88-20.38 21.78-20.85 54.45-1.05 72.98s52.38 15.89 72.75-5.88c20.38-21.78 20.85-54.45 1.04-72.98zM9084.8 7452.2c-25.9 0-46.9 21-46.9 46.9s21 46.9 46.9 46.9 46.9-21 46.9-46.9-21-46.9-46.9-46.9zm-60.9 220.1c-26.46 0-47.9 21.44-47.9 47.9 0 26.45 21.44 47.9 47.9 47.9 26.45 0 47.9-21.45 47.9-47.9 0-26.46-21.45-47.9-47.9-47.9zm-148.1 141.9c-141.1-344.7 112.3-629.5 283.1-897.7 110.3-173.1 217.1-349.2 332.9-518.6 90.07-132 179.87-264.13 269.4-396.4 37.4-55.3 148.7-182.2 214.5-70.7 60.3 102.2-159.1 357.6-254.1 480.8-181.6 235.5-195.8 507.7-156.7 791 11 79.5 29.8 203 24 286.9-13.4 193.2-149.9 447.6-337.1 524.9-162.7 67.3-316.8-55.8-376-200.2M5246.1 1505.7c-20.33-130.66-43.9-260.77-70.7-390.3-4.4-21.4-12.2-38.87-23.4-52.4-25.1-30.4-68.8-9.51-68.3 32 .47 40.87 2.67 81.63 6.6 122.3 2.4 25.2-10 60.3-41.3 55-55.2-9.1-36.8-193.81-109.6-160.4-12.94 5.93-19.57 17.2-19.9 33.8-5.4 246.07-2.77 430.83 7.9 554.3 9.7 112.2 35.3 280.1 187.4 277.4 208.9-3.7 150-351.9 131.3-471.7zm-162.2-736.302c-18.3-31.199-63-15.796-59.2 20.301 3.8 35.403 12.57 69.332 26.3 101.801 18.4 43.699 66.8 21.398 64.3-18.898-2.27-37.063-12.73-71.473-31.4-103.204zM5047 512.301c-1.27-3.199-3.4-5.629-6.4-7.301-18.7-11-52.3-6.699-55.7 20-5.27 41.402 3.9 76.301 27.5 104.699 7.25 8.813 19.93 10.871 29.6 4.801 35.4-22.199 19-87.699 5-122.199zM4946.9 799c-12.1-31.102-33-34.699-58.9-15.398-3.7 2.757-5.86 7.109-5.8 11.699.4 49.859 12.2 98.801 35.4 146.801 8.9 18.296 41.8 15.699 51.2-2.102 14.5-27.5-10.7-112.199-21.9-141zm-21.5-138.801c-4.07-40.398-12.7-79.828-25.9-118.297-15.5-44.8-79.1-30.601-70.2 15.7 7.6 39.66 19.37 78.199 35.3 115.597 13.5 31.703 64.7 26.203 60.8-13zM5156.7 2151.5c-173.9 20.8-354.5-78.6-376.3-264.1-6.33-54-9-97.3-8-129.9 14.1-441.3 31.1-831.699-82.9-1224.398C4610.83 261.902 4559.97 84.1992 4536.9 0h125c24.73 98.6719 50.5 197.07 77.3 295.199 10.1 37.301 29.7 118.403 81.1 114.903 41-2.7 40.1-38.2 34.5-71C4835.27 225.77 4814.3 112.73 4791.9 0h102.5l-.8 3.10156c-.4 1.66016-.47 3.32813-.2 5C4912.93 133.23 4931.2 239.473 4948.2 326.801c6 30.898 22 81.898 63.7 77.301 41.1-4.5 34.2-53.301 31.3-81.403-11.13-107.797-23.43-215.367-36.9-322.699h105.6c12.6 383.801 45.3 720.992 144 1069.7 57.5 203 137.7 459 169.5 691.2 26.8 195.9-61.3 365.9-268.7 390.6M2191 1994.3c52.4 48.27 117.03 81 193.9 98.2 150.8 33.7 292.1-82 252.8-237.4-31.8-126.1-216.5-185.4-326.9-185.5-191.3-.1-253.8 201.2-119.8 324.7zm589-152.1c20.3 240.6-193.3 458.9-434.6 411.6-161.7-31.7-310.8-166.1-359.3-323.5-46.7-151.7 5.3-316.7 148-392.5 231.8-123.1 621.8 17.4 645.9 304.4" style="fill:#c6c3c1;fill-opacity:1;fill-rule:nonzero;stroke:none" transform="matrix(.13333 0 0 -.13333 0 1194.6667)"/><path d="M2242.7 1787.8c63.1-55.5 187.4-4.31 250.4 34.1 51.2 31.2 77.2 84.6 41.3 138.1-82.2 122.5-420.3-59.1-291.7-172.2M2986.93 1038.56c-23.63-93.38-120.52-149.388-216.41-125.13-95.9 24.261-154.48 119.63-130.85 213 23.63 93.38 120.52 149.41 216.41 125.14 95.89-24.27 154.48-119.63 130.85-213.01zm-60.83 413.34c-197.5 36.59-421-71.1-481.4-271-42.8-141.7 4-318.502 127.2-409.002 171.6-126.097 402.4-83.199 553.8 54.704C3371.3 1050.3 3234 1395 2926.1 1451.9" style="fill:#c6c3c1;fill-opacity:1;fill-rule:nonzero;stroke:none" transform="matrix(.13333 0 0 -.13333 0 1194.6667)"/><path d="M2826.92 1156.35c-42.8 7.86-83.65-19.24-91.23-60.52-7.57-41.29 20.98-81.12 63.79-88.99 42.81-7.852 83.65 19.25 91.22 60.53 7.58 41.29-20.97 81.12-63.78 88.98M2355.1 4489.4c0-53.68-43.52-97.2-97.2-97.2s-97.2 43.52-97.2 97.2 43.52 97.2 97.2 97.2 97.2-43.52 97.2-97.2zm-410.9 249.2c-83.73-13.13-117.03-63.53-99.9-151.2 13.1-67.2 46.6-156.3 77.7-257.1 67.3-218.3 382.3-113.5 518.3-50.2 52.8 24.54 88.07 50.47 105.8 77.8 90.2 138.8-104.9 401.6-253.7 407.5-95.13 3.67-211.2-5.26-348.2-26.8M2962.8 2777.7c-153.73-66.4-279.83-117.13-378.3-152.2-18.5-6.6-46.9-6.2-62.3 9.2-42.9 43.2 13.6 85.6 52.7 102.4 132.4 56.8 267.2 107.2 404.4 151.2 27.9 9 58.2 3 68-26.7 14.7-45-55.1-71.2-84.5-83.9zm-544.5 79c-37.2-11.7-78 .8-83 43.2-5.4 45.8 54.6 64.9 94 78.59 235 82.08 395.17 136.94 480.5 164.61 26.5 8.6 61.9-.2 62.2-34.1.2-26.3-35.2-45.4-56.4-54.5-162.1-69.9-329.1-144.8-497.3-197.8zm-185.9 292.9c26.9 51.6 498.3 167.1 577 185.9 17.4 4.14 35.23 3.46 53.5-2.01 1.63-.51 3.06-1.52 4.1-2.89 37.8-49.9-26-75.2-61.4-88.7-164.54-62.4-330.43-120.87-497.7-175.4-54.9-17.9-105.4 25.9-75.5 83.1zm878.9-132c-22.8 95.33-50.43 189.26-82.9 281.8-23.4 66.5-86.1 127.6-153.5 138.5-227.2 36.9-476.4-44.6-678.9-154.41-97.9-52.99-128.2-125.29-75.4-230.39 75.4-150.2 162.67-293.06 261.8-428.6 63.5-86.9 132.8-151.6 250.9-120.6 82.8 21.73 191.1 64.43 324.9 128.1 194 92.4 199.3 192.5 153.1 385.6M3787.6 1885.2c-6.8-39.3-24-80.2-70.7-63.3-17.6 6.33-24.97 21.54-22.1 45.6 21.2 178.2 41.8 356.46 61.8 534.8 7.8 70.2 68.9 66.8 70.5 9.6 4.8-170.4-8.36-345.96-39.5-526.7zm137.8 107.4c18 293.7-78 594.9-188.5 865.1-7.13 17.4-17.63 21.37-31.5 11.9-6.48-4.48-10.22-11.95-9.9-19.8 8.06-211.93-2.8-422.6-32.6-632-14.93-105-29.9-210-44.9-315-8.9-61.81-17.4-158.6 67-167.9 158.9-17.5 232.1 122.2 240.4 257.7M478.301 1955.99c90.5 341.61 108.199 719.41 32.597 1069.21-55.996 259.5-164.296 603.8-504.49566 560.3-1.33203-.13-2.53515.13-3.60156.8L0 3588.1v-230c251.199-16 345.801-242.8 384-460.4 63.805-363.8 47.5-1147.5-384-1317.1v-265c262.5 78.1 412.805 393.2 478.301 640.39" style="fill:#c6c3c1;fill-opacity:1;fill-rule:nonzero;stroke:none" transform="matrix(.13333 0 0 -.13333 0 1194.6667)"/><path d="M197.203 2057.5c50 229.2 63.895 462.6 41.699 700.2-14.101 151.7-70 327.9-238.902 360.4V3017c149.199-23.6 144.301-271.3 147.004-378.9 5.863-229.87-11.137-445.93-51.004-648.2-7.0977-36.3-56.8984-59.9-83.0039-26-16.29688 21.1-11.59376 77.2-9.69532 100.5 21.50002 267.1 30.49612 507.5 10.89842 770.4-1.2031 16.5-7.99998 33.4-14.1992 48.3V1710.6c116.801 72.1 168.902 217.4 197.203 346.9" style="fill:#c6c3c1;fill-opacity:1;fill-rule:nonzero;stroke:none" transform="matrix(.13333 0 0 -.13333 0 1194.6667)"/></svg>